<svg id="_0166_career_4" xmlns="http://www.w3.org/2000/svg" viewBox="0 0 500 500" data-imageid="career-4-35" imageName="Career 4" class="illustrations_image" style="width: 166px;"><defs><style>.cls-1_career-4-35{opacity:.45;}.cls-1_career-4-35,.cls-2_career-4-35,.cls-3_career-4-35,.cls-4_career-4-35,.cls-5_career-4-35,.cls-6_career-4-35,.cls-7_career-4-35{fill:none;}.cls-8_career-4-35{fill:#fff;}.cls-9_career-4-35{fill:#f4a28c;}.cls-2_career-4-35{opacity:.46;}.cls-3_career-4-35{opacity:.58;}.cls-4_career-4-35{opacity:.03;}.cls-5_career-4-35{opacity:.73;}.cls-6_career-4-35{opacity:.08;}.cls-7_career-4-35{opacity:.3;}.cls-10_career-4-35{fill:#24285b;}.cls-11_career-4-35{fill:#000001;}.cls-12_career-4-35{fill:#ffd200;}.cls-13_career-4-35{fill:#68e1fd;}</style></defs><g id="bg_career-4-35" class="cls-4_career-4-35"><g class="cls-7_career-4-35"><path class="cls-11_career-4-35" d="m173.25,102.62c-60.51,14.95-108.33,62.17-122.35,122.9-10.43,45.19-1.28,91.79,68.91,108.73,151.76,36.64,315.67,24.55,335.31-48.72,19.64-73.27-16.8-198.97-103.58-206.75-49.41-4.43-123.58,10.32-178.3,23.84Z"/></g><g class="cls-1_career-4-35"><ellipse class="cls-11_career-4-35" cx="265.83" cy="441.58" rx="186.18" ry="23.47"/></g></g><g id="plant_career-4-35"><g class="cls-3_career-4-35"><path class="cls-13_career-4-35 targetColor" d="m402.75,420.93s-16-4.3-19.54-19.16c0,0,24.74-5.11,25.55,20.45l-6.01-1.29Z" style="fill: rgb(104, 225, 253);"/></g><g class="cls-5_career-4-35"><path class="cls-13_career-4-35 targetColor" d="m404.7,419.33s-11.24-17.61-1.48-34.15c0,0,18.88,11.88,10.61,34.15h-9.12Z" style="fill: rgb(104, 225, 253);"/></g><path class="cls-13_career-4-35 targetColor" d="m407.58,419.33s5.82-18.67,23.64-22.27c0,0,3.39,12.09-11.45,22.27h-12.19Z" style="fill: rgb(104, 225, 253);"/><polygon class="cls-10_career-4-35" points="395.99 418.96 399.32 441.11 419.73 441.11 422.64 418.96 395.99 418.96"/><g class="cls-3_career-4-35"><path class="cls-13_career-4-35 targetColor" d="m402.75,420.93s-16-4.3-19.54-19.16c0,0,24.74-5.11,25.55,20.45l-6.01-1.29Z" style="fill: rgb(104, 225, 253);"/></g><g class="cls-5_career-4-35"><path class="cls-13_career-4-35 targetColor" d="m404.7,419.33s-11.24-17.61-1.48-34.15c0,0,18.88,11.88,10.61,34.15h-9.12Z" style="fill: rgb(104, 225, 253);"/></g><path class="cls-13_career-4-35 targetColor" d="m407.58,419.33s5.82-18.67,23.64-22.27c0,0,3.39,12.09-11.45,22.27h-12.19Z" style="fill: rgb(104, 225, 253);"/><polygon class="cls-10_career-4-35" points="395.99 418.96 399.32 441.11 419.73 441.11 422.64 418.96 395.99 418.96"/></g><g id="person_stairs_career-4-35"><rect class="cls-12_career-4-35" x="252.69" y="181.6" width="76.72" height="5.34"/><rect class="cls-12_career-4-35" x="252.69" y="238.61" width="76.72" height="5.34"/><rect class="cls-12_career-4-35" x="252.69" y="298.06" width="76.72" height="5.34"/><rect class="cls-12_career-4-35" x="252.69" y="355.07" width="76.72" height="5.34"/><rect class="cls-12_career-4-35" x="252.69" y="403.02" width="76.72" height="5.34"/><rect class="cls-12_career-4-35" x="250.02" y="34.96" width="5.34" height="406.62"/><rect class="cls-12_career-4-35" x="326.74" y="34.96" width="5.34" height="406.62"/><rect class="cls-12_career-4-35" x="252.69" y="67.59" width="76.72" height="5.34"/><rect class="cls-12_career-4-35" x="252.69" y="124.6" width="76.72" height="5.34"/><path class="cls-10_career-4-35" d="m76.22,313.75h-2.14v-8.62c0-5.48-4.46-9.93-9.93-9.93h-10.31c-5.48,0-9.93,4.46-9.93,9.93v8.03h-2.14v-8.03c0-6.65,5.41-12.07,12.07-12.07h10.31c6.65,0,12.07,5.41,12.07,12.07v8.62Z"/><rect class="cls-12_career-4-35" x="20.99" y="309.98" width="78.5" height="51.13"/><g class="cls-6_career-4-35"><path class="cls-11_career-4-35" d="m20.99,333.96s29.42,25.27,78.5,17.84v9.32H20.99v-27.15Z"/></g><path class="cls-13_career-4-35 targetColor" d="m138.13,119.97s-28.79,14.14-28.2,39.7c.59,25.57,1.78,93.94-45.78,108.21l5.95,15.46s100.99,2.65,68.03-163.37Z" style="fill: rgb(104, 225, 253);"/><g class="cls-2_career-4-35"><path class="cls-8_career-4-35" d="m138.13,119.97s-28.79,14.14-28.2,39.7c.59,25.57,1.78,93.94-45.78,108.21l5.95,15.46s100.99,2.65,68.03-163.37Z"/></g><polygon class="cls-9_career-4-35" points="146.08 93.9 151.87 111.25 138.13 119.97 133.19 89.9 146.08 93.9"/><path class="cls-9_career-4-35" d="m128.47,73.12c2.95-7.21,12.55-8.68,17.88-3,5.85,6.24,12.89,16.17,4.92,21.57-12.2,8.27-23.4-7.18-23.4-7.18,0,0-1.64-5.92.6-11.39Z"/><path class="cls-9_career-4-35" d="m137.4,83.77s-3.13-2.61-4.54,1.1,4.11,5.51,5.76,3.63c1.65-1.88-1.21-4.73-1.21-4.73Z"/><path class="cls-10_career-4-35" d="m134.09,95.42l-9.29-9.62c-1.95-2.02-2.96-4.74-2.83-7.55.23-4.89,1.27-12.7,5.32-18.55,6.35-9.19,14.82-12.66,16.92-4.72s2.54-1.49,7.66,2.73c5.12,4.22,4.07,6.69,0,8.93-4.07,2.24-12.5,5.47-13.25,12.17s5.6,12.1-4.53,16.6Z"/><path class="cls-13_career-4-35 targetColor" d="m151.87,111.25s68.95-28.35,87.53,24.9c18.58,53.25-9.96,131.74-9.96,131.74h-77.57s-68.69-103.46-13.74-147.92l13.74-8.72Z" style="fill: rgb(104, 225, 253);"/><path class="cls-9_career-4-35" d="m65.87,272.35s-20.74,9.01-12.42,18.53,16.65-7.53,16.65-7.53l-4.23-11Z"/><polygon class="cls-10_career-4-35" points="151.87 267.89 165.23 429.05 181.25 429.05 192.85 303.94 229.44 267.89 151.87 267.89"/><path class="cls-13_career-4-35 targetColor" d="m168.79,429.05l.67,5.47c.47,3.82,3.71,6.68,7.55,6.68h11.7c3.88,0,5.6-4.8,2.65-7.34-2.12-1.82-5.31-3.6-10.11-4.82h-12.46Z" style="fill: rgb(104, 225, 253);"/><path class="cls-13_career-4-35 targetColor" d="m189.73,138.84c-8.68-23.95,22.08-42.19,38.85-23.01,5.48,6.26,10.5,14.86,14.37,26.6,17.65,53.51,21.81,84.43,79.48,85.62v17.24s-77.29,11.82-113.56-62.47c-9.02-18.48-15.1-32.84-19.14-43.99Z" style="fill: rgb(104, 225, 253);"/><g class="cls-2_career-4-35"><path class="cls-8_career-4-35" d="m189.73,138.84c-8.68-23.95,22.08-42.19,38.85-23.01,5.48,6.26,10.5,14.86,14.37,26.6,17.65,53.51,21.81,84.43,79.48,85.62v17.24s-77.29,11.82-113.56-62.47c-9.02-18.48-15.1-32.84-19.14-43.99Z"/></g><path class="cls-9_career-4-35" d="m322.44,232.22s14.62-3.3,17.79,6.22c3.17,9.51-17.79,6.86-17.79,6.86v-13.08Z"/><path class="cls-13_career-4-35 targetColor" d="m285.88,341.41l-.98,3.53c-.7,2.52-.02,5.21,1.78,7.1l1.15,1.2c1.4,1.47,3.34,2.3,5.36,2.3h9.68c2.81,0,4.24-3.45,2.19-5.38-1.89-1.78-4.45-3.67-7.82-5.13l-11.38-3.62Z" style="fill: rgb(104, 225, 253);"/><path class="cls-10_career-4-35" d="m196.41,267.89s64.38-7.94,85.11-3.26,16.75,80.87,16.75,80.87l-15.48-2.72s-1.27-38.73-11.64-49.01-78.3,10.17-78.3,10.17l3.56-36.05Z"/></g><g id="dollar_career-4-35"><circle class="cls-10_career-4-35" cx="423.51" cy="98.34" r="55.5"/><polygon class="cls-10_career-4-35" points="390.7 126.71 357.98 135.49 382.52 110.01 390.7 126.71"/><path class="cls-8_career-4-35" d="m424.43,69.66c1.57,0,2.05.55,2.05,2.12v3.35c6.3.89,9.92,4.04,12.59,9.51.82,1.64.48,2.53-1.37,3.35l-3.35,1.51c-1.57.75-2.33.41-3.22-1.23-1.85-3.56-4.11-5.27-8.76-5.27-5.82,0-8.49,1.71-8.49,5.61,0,2.53,2.33,4.11,4.72,4.58,1.16.27,2.81.55,4.93.75,3.83.34,5.75.62,9.1,1.78,1.71.62,3.01,1.3,4.04,2.19,1.92,1.78,3.63,5.2,3.63,9.58,0,7.46-5,12.52-13.82,13.82v3.56c0,1.57-.48,2.12-2.05,2.12h-3.76c-1.57,0-2.12-.55-2.12-2.12v-3.49c-6.84-.89-11.43-4.38-13.69-10.54-.55-1.51,0-2.53,1.57-3.15l3.35-1.23c1.71-.62,2.46-.21,3.22,1.51,1.51,3.83,4.58,5.75,9.24,5.75,6.3,0,9.44-1.98,9.44-6.02,0-2.12-.96-3.42-2.94-4.24-1.98-.75-3.7-1.03-6.77-1.3-3.76-.34-5.89-.75-9.17-1.98-1.64-.62-2.94-1.37-3.97-2.26-2.05-1.85-3.7-5.13-3.7-9.31,0-7.39,4.65-12.32,13.41-13.48v-3.35c0-1.57.55-2.12,2.12-2.12h3.76Z"/></g></svg>