<svg version="1.1" id="Layer_1" xmlns="http://www.w3.org/2000/svg" xmlns:xlink="http://www.w3.org/1999/xlink" x="0px" y="0px" viewBox="0 0 500 500" style="width: 166px;" xml:space="preserve" data-imageid="chart-4-91" imageName="Chart 4" class="illustrations_image">
<style type="text/css">
	.st0_chart-4-91{fill:#D1D3D4;}
	.st1_chart-4-91{fill:#231F20;}
	.st2_chart-4-91{fill:#FFFFFF;}
	.st3_chart-4-91{fill:#68E1FD;}
</style>
<g id="Bar_Chart_chart-4-91">
	<polygon class="st0_chart-4-91" points="311.2,262.2 311.2,120.8 347,147.7 347,289.2 &#9;"/>
	<path class="st1_chart-4-91" d="M347,289.8c-0.1,0-0.3,0-0.4-0.1l-35.8-27c-0.2-0.1-0.3-0.3-0.3-0.5V120.8c0-0.4,0.3-0.6,0.7-0.6&#10;&#9;&#9;c0.1,0,0.2,0,0.3,0.1l35.8,27c0.2,0.1,0.3,0.3,0.3,0.5v141.4c0,0.2-0.1,0.5-0.4,0.6C347.2,289.8,347.1,289.8,347,289.8z&#10;&#9;&#9; M311.8,261.9l34.6,26V148.1l-34.6-26V261.9z"/>
	<polygon class="st2_chart-4-91" points="347,289.2 389.5,269.8 389.5,128.4 347,147.7 &#9;"/>
	<path class="st1_chart-4-91" d="M347,289.9c-0.1,0-0.3,0-0.4-0.1c-0.2-0.1-0.3-0.4-0.3-0.6V147.7c0-0.3,0.2-0.5,0.4-0.6l42.5-19.4&#10;&#9;&#9;c0.3-0.2,0.8,0,0.9,0.3c0,0.1,0.1,0.2,0.1,0.3v141.4c0,0.3-0.2,0.5-0.4,0.6l-42.5,19.4C347.2,289.8,347.1,289.9,347,289.9z&#10;&#9;&#9; M347.7,148.2v139.9l41.1-18.8V129.4L347.7,148.2L347.7,148.2z"/>
	<polygon class="st2_chart-4-91" points="347,147.7 389.5,128.4 355.4,102.4 311.2,120.8 &#9;"/>
	<path class="st1_chart-4-91" d="M347,148.4c-0.2,0-0.3,0-0.4-0.1l-35.8-27c-0.2-0.2-0.3-0.4-0.3-0.7c0-0.3,0.2-0.5,0.4-0.6l44.2-18.3&#10;&#9;&#9;c0.2-0.1,0.5-0.1,0.7,0.1l34.1,25.9c0.2,0.1,0.3,0.4,0.3,0.6c0,0.2-0.2,0.5-0.4,0.6l-42.5,19.4C347.2,148.4,347.1,148.4,347,148.4&#10;&#9;&#9;L347,148.4z M312.6,121l34.5,26l41-18.7l-32.9-24.9L312.6,121z"/>
	<polygon class="st0_chart-4-91" points="262.4,284.8 262.4,212.3 298.3,239.3 298.3,311.8 &#9;"/>
	<path class="st1_chart-4-91" d="M298.3,312.5c-0.1,0-0.3,0-0.4-0.1l-35.8-27c-0.2-0.1-0.3-0.3-0.3-0.5v-72.5c0-0.4,0.3-0.6,0.7-0.6&#10;&#9;&#9;c0.1,0,0.2,0,0.3,0.1l35.8,27c0.2,0.1,0.3,0.3,0.3,0.5v72.5c0,0.2-0.1,0.5-0.4,0.6C298.4,312.5,298.3,312.5,298.3,312.5&#10;&#9;&#9;L298.3,312.5z M263.1,284.5l34.6,26v-70.9l-34.6-26V284.5z"/>
	<polygon class="st2_chart-4-91" points="298.3,311.8 340.8,292.4 340.8,219.9 298.3,239.3 &#9;"/>
	<path class="st1_chart-4-91" d="M298.3,312.5c-0.1,0-0.3,0-0.4-0.1c-0.2-0.1-0.3-0.4-0.3-0.6v-72.5c0-0.3,0.2-0.5,0.4-0.6l42.5-19.4&#10;&#9;&#9;c0.3-0.2,0.8,0,0.9,0.3c0,0.1,0.1,0.2,0.1,0.3v72.5c0,0.3-0.2,0.5-0.4,0.6l-42.5,19.4C298.5,312.5,298.4,312.5,298.3,312.5z&#10;&#9;&#9; M299,239.7v71L340,292v-71L299,239.7z"/>
	<polygon class="st2_chart-4-91" points="298.3,239.3 340.8,219.9 306.6,194 262.4,212.3 &#9;"/>
	<path class="st1_chart-4-91" d="M298.3,240c-0.2,0-0.3,0-0.4-0.1l-35.8-27c-0.2-0.2-0.3-0.4-0.3-0.6c0-0.3,0.2-0.5,0.4-0.6l44.2-18.3&#10;&#9;&#9;c0.2-0.1,0.5-0.1,0.7,0.1l34.1,25.9c0.2,0.1,0.3,0.4,0.3,0.6c0,0.2-0.2,0.5-0.4,0.6l-42.5,19.4C298.5,239.9,298.4,240,298.3,240&#10;&#9;&#9;L298.3,240z M263.8,212.5l34.5,26l41-18.7l-32.9-24.9L263.8,212.5L263.8,212.5z"/>
	<polygon class="st0_chart-4-91" points="213.7,307.5 213.7,192.2 249.5,219.2 249.5,334.5 &#9;"/>
	<path class="st1_chart-4-91" d="M249.5,335.1c-0.1,0-0.3,0-0.4-0.1l-35.8-27c-0.2-0.1-0.3-0.3-0.3-0.5V192.2c0-0.4,0.3-0.6,0.7-0.6&#10;&#9;&#9;c0.1,0,0.2,0,0.3,0.1l35.8,27c0.2,0.1,0.3,0.3,0.3,0.5v115.2c0,0.2-0.1,0.5-0.4,0.6C249.7,335.1,249.6,335.1,249.5,335.1z&#10;&#9;&#9; M214.3,307.2l34.6,26V219.5l-34.6-26V307.2z"/>
	<polygon class="st2_chart-4-91" points="249.5,334.5 292,315.1 292,199.8 249.5,219.2 &#9;"/>
	<path class="st1_chart-4-91" d="M249.5,335.2c-0.1,0-0.3,0-0.4-0.1c-0.2-0.1-0.3-0.4-0.3-0.6V219.2c0-0.3,0.2-0.5,0.4-0.6l42.5-19.4&#10;&#9;&#9;c0.3-0.2,0.8,0,0.9,0.3c0,0.1,0.1,0.2,0.1,0.3v115.2c0,0.3-0.2,0.5-0.4,0.6l-42.5,19.4C249.7,335.1,249.6,335.2,249.5,335.2z&#10;&#9;&#9; M250.2,219.7v113.7l41.1-18.8V200.9L250.2,219.7L250.2,219.7z"/>
	<polygon class="st2_chart-4-91" points="249.5,219.2 292,199.8 257.9,173.9 213.7,192.2 &#9;"/>
	<path class="st1_chart-4-91" d="M249.5,219.9c-0.2,0-0.3,0-0.4-0.1l-35.8-27c-0.2-0.2-0.3-0.4-0.3-0.6c0-0.3,0.2-0.5,0.4-0.6l44.2-18.3&#10;&#9;&#9;c0.2-0.1,0.5-0.1,0.7,0.1l34.1,25.9c0.2,0.1,0.3,0.4,0.3,0.6c0,0.2-0.2,0.5-0.4,0.6l-42.5,19.4&#10;&#9;&#9;C249.7,219.8,249.6,219.9,249.5,219.9L249.5,219.9z M215.1,192.4l34.5,26l41-18.7l-32.9-25L215.1,192.4L215.1,192.4z"/>
	<polygon class="st0_chart-4-91" points="164.9,330.1 164.9,258.7 200.8,285.7 200.8,357.1 &#9;"/>
	<path class="st1_chart-4-91" d="M200.8,357.7c-0.1,0-0.3,0-0.4-0.1l-35.8-27c-0.2-0.1-0.3-0.3-0.3-0.5v-71.4c0-0.4,0.3-0.6,0.7-0.6&#10;&#9;&#9;c0.1,0,0.2,0,0.3,0.1l35.8,27c0.2,0.1,0.3,0.3,0.3,0.5v71.4c0,0.2-0.1,0.5-0.4,0.6C201,357.7,200.9,357.7,200.8,357.7z&#10;&#9;&#9; M165.6,329.8l34.6,26V286l-34.6-26V329.8z"/>
	<polygon class="st2_chart-4-91" points="200.8,357.1 243.3,337.7 243.3,266.3 200.8,285.7 &#9;"/>
	<path class="st1_chart-4-91" d="M200.8,357.8c-0.1,0-0.3,0-0.4-0.1c-0.2-0.1-0.3-0.4-0.3-0.6v-71.4c0-0.3,0.2-0.5,0.4-0.6l42.5-19.4&#10;&#9;&#9;c0.3-0.2,0.8,0,0.9,0.3c0,0.1,0.1,0.2,0.1,0.3v71.4c0,0.3-0.2,0.5-0.4,0.6l-42.5,19.4C201,357.8,200.9,357.8,200.8,357.8z&#10;&#9;&#9; M201.5,286.1V356l41.1-18.8v-69.9L201.5,286.1z"/>
	<polygon class="st2_chart-4-91" points="200.8,285.7 243.3,266.3 209.2,240.4 164.9,258.7 &#9;"/>
	<path class="st1_chart-4-91" d="M200.8,286.4c-0.2,0-0.3,0-0.4-0.1l-35.8-27c-0.2-0.2-0.3-0.4-0.3-0.6c0-0.3,0.2-0.5,0.4-0.6l44.2-18.3&#10;&#9;&#9;c0.2-0.1,0.5-0.1,0.7,0.1l34.1,25.9c0.2,0.1,0.3,0.4,0.3,0.6c0,0.2-0.2,0.5-0.4,0.6l-42.5,19.4C201,286.3,200.9,286.3,200.8,286.4&#10;&#9;&#9;L200.8,286.4z M166.3,258.9l34.5,26l41-18.7l-32.8-25L166.3,258.9z"/>
	<polygon class="st0_chart-4-91" points="116.2,352.8 116.2,306.4 152,333.4 152,379.8 &#9;"/>
	<path class="st1_chart-4-91" d="M152,380.4c-0.1,0-0.3,0-0.4-0.1l-35.8-27c-0.2-0.1-0.3-0.3-0.3-0.5v-46.3c0-0.4,0.3-0.6,0.7-0.6&#10;&#9;&#9;c0.1,0,0.2,0,0.3,0.1l35.8,27c0.2,0.1,0.3,0.3,0.3,0.5v46.4c0,0.2-0.1,0.5-0.4,0.6C152.2,380.4,152.1,380.4,152,380.4L152,380.4z&#10;&#9;&#9; M116.8,352.5l34.6,26v-44.8l-34.6-26V352.5z"/>
	<polygon class="st2_chart-4-91" points="152,379.8 194.5,360.4 194.5,314 152,333.4 &#9;"/>
	<path class="st1_chart-4-91" d="M152,380.5c-0.1,0-0.3,0-0.4-0.1c-0.2-0.1-0.3-0.4-0.3-0.6v-46.4c0-0.3,0.2-0.5,0.4-0.6l42.5-19.4&#10;&#9;&#9;c0.3-0.2,0.8,0,0.9,0.3c0,0.1,0.1,0.2,0.1,0.3v46.4c0,0.3-0.2,0.5-0.4,0.6l-42.5,19.4C152.2,380.4,152.1,380.5,152,380.5z&#10;&#9;&#9; M152.7,333.8v44.8l41.1-18.8v-44.8L152.7,333.8z"/>
	<polygon class="st2_chart-4-91" points="152,333.4 194.5,314 160.4,288.1 116.2,306.4 &#9;"/>
	<path class="st1_chart-4-91" d="M152,334.1c-0.2,0-0.3,0-0.4-0.1l-35.8-27c-0.2-0.2-0.3-0.4-0.3-0.6c0-0.3,0.2-0.5,0.4-0.6l44.2-18.3&#10;&#9;&#9;c0.2-0.1,0.5-0.1,0.7,0.1l34.1,25.9c0.2,0.1,0.3,0.4,0.3,0.6c0,0.2-0.2,0.5-0.4,0.6L152.3,334C152.2,334,152.1,334.1,152,334.1&#10;&#9;&#9;L152,334.1z M117.6,306.6l34.5,26l41-18.7l-32.9-25L117.6,306.6L117.6,306.6z"/>
</g>
<g id="XY_Axis_chart-4-91">
	<path class="st1_chart-4-91" d="M154.1,398.2c-0.2,0-0.3-0.1-0.4-0.1L80,341.4c-0.3-0.2-0.4-0.7-0.2-1c0.2-0.3,0.7-0.4,1-0.2c0,0,0,0,0.1,0&#10;&#9;&#9;l73.3,56.4l265.2-123.4c0.4-0.2,0.8,0,0.9,0.3s0,0.8-0.3,0.9L154.4,398.2C154.3,398.2,154.2,398.3,154.1,398.2L154.1,398.2z"/>
</g>
<g id="Line_of_Text_chart-4-91">
	<path class="st0_chart-4-91" d="M259.1,151.2c-0.4,0-0.7-0.3-0.7-0.7c0-0.3,0.2-0.5,0.4-0.7l19.2-7.8c0.4-0.1,0.8,0,0.9,0.4&#10;&#9;&#9;c0.1,0.4,0,0.8-0.4,0.9c0,0,0,0,0,0l-19.2,7.8C259.3,151.2,259.2,151.2,259.1,151.2z"/>
	<path class="st0_chart-4-91" d="M259.1,142.3c-0.4,0-0.7-0.3-0.7-0.7c0-0.3,0.2-0.5,0.4-0.7l32.3-13c0.4-0.1,0.8,0,0.9,0.4&#10;&#9;&#9;c0.1,0.4,0,0.8-0.4,0.9c0,0,0,0,0,0l-32.3,13C259.3,142.3,259.2,142.3,259.1,142.3z"/>
	<path class="st0_chart-4-91" d="M259.1,133.4c-0.4,0-0.7-0.3-0.7-0.7c0-0.3,0.2-0.5,0.4-0.7l32.3-13c0.4-0.1,0.8,0,0.9,0.4&#10;&#9;&#9;c0.1,0.4,0,0.8-0.4,0.9c0,0,0,0,0,0l-32.3,13C259.3,133.4,259.2,133.4,259.1,133.4z"/>
	<path class="st0_chart-4-91" d="M259.1,124.4c-0.4,0-0.7-0.3-0.7-0.7c0-0.3,0.2-0.5,0.4-0.7l32.3-13c0.4-0.1,0.8,0,0.9,0.4&#10;&#9;&#9;c0.1,0.4,0,0.8-0.4,0.9c0,0,0,0,0,0l-32.3,13C259.3,124.4,259.2,124.4,259.1,124.4z"/>
	<path class="st0_chart-4-91" d="M195.7,137.1c-0.4,0-0.7-0.3-0.7-0.7c0-0.3,0.2-0.5,0.4-0.7l28.7-11.6c0.4-0.1,0.8,0,0.9,0.4s0,0.8-0.4,0.9&#10;&#9;&#9;l0,0L196,137.1C195.9,137.1,195.8,137.1,195.7,137.1L195.7,137.1z"/>
	<path class="st0_chart-4-91" d="M195.7,128.2c-0.4,0-0.7-0.3-0.7-0.7c0-0.3,0.2-0.5,0.4-0.7l32.3-13c0.4-0.1,0.8,0,0.9,0.4s0,0.8-0.4,0.9l0,0&#10;&#9;&#9;l-32.3,13C195.9,128.2,195.8,128.2,195.7,128.2L195.7,128.2z"/>
	<path class="st0_chart-4-91" d="M195.7,119.2c-0.4,0-0.7-0.3-0.7-0.7c0-0.3,0.2-0.5,0.4-0.7l32.3-13c0.4-0.1,0.8,0,0.9,0.4s0,0.8-0.4,0.9&#10;&#9;&#9;l-32.3,13C195.9,119.2,195.8,119.2,195.7,119.2L195.7,119.2z"/>
	<path class="st0_chart-4-91" d="M399.3,188.9c-0.4,0-0.7-0.3-0.7-0.7c0-0.3,0.2-0.5,0.4-0.7l20-8.1c0.4-0.1,0.8,0,0.9,0.4&#10;&#9;&#9;c0.1,0.4,0,0.8-0.4,0.9c0,0,0,0,0,0l-20,8.1C399.5,188.9,399.4,188.9,399.3,188.9z"/>
	<path class="st0_chart-4-91" d="M399.3,199.6c-0.4,0-0.7-0.3-0.7-0.7c0-0.3,0.2-0.5,0.4-0.7l20-8.1c0.4-0.1,0.8,0,0.9,0.4&#10;&#9;&#9;c0.1,0.4,0,0.8-0.4,0.9c0,0,0,0,0,0l-20,8.1C399.5,199.6,399.4,199.6,399.3,199.6z"/>
	<path class="st0_chart-4-91" d="M399.3,210.3c-0.4,0-0.7-0.3-0.7-0.7c0-0.3,0.2-0.5,0.4-0.7l20-8.1c0.4-0.1,0.8,0,0.9,0.4&#10;&#9;&#9;c0.1,0.4,0,0.8-0.4,0.9c0,0,0,0,0,0l-20,8.1C399.5,210.3,399.4,210.3,399.3,210.3z"/>
	<path class="st0_chart-4-91" d="M399.3,221c-0.4,0-0.7-0.3-0.7-0.7c0-0.3,0.2-0.5,0.4-0.7l20-8.1c0.4-0.1,0.8,0,0.9,0.4c0.1,0.4,0,0.8-0.4,0.9&#10;&#9;&#9;c0,0,0,0,0,0l-20,8.1C399.5,221,399.4,221,399.3,221z"/>
	<path class="st0_chart-4-91" d="M399.3,231.7c-0.4,0-0.7-0.3-0.7-0.7c0-0.3,0.2-0.5,0.4-0.7l20-8.1c0.4-0.1,0.8,0,0.9,0.4&#10;&#9;&#9;c0.1,0.4,0,0.8-0.4,0.9c0,0,0,0,0,0l-20,8.1C399.5,231.7,399.4,231.7,399.3,231.7z"/>
	<path class="st0_chart-4-91" d="M399.3,242.4c-0.4,0-0.7-0.3-0.7-0.7c0-0.3,0.2-0.5,0.4-0.7l10-4c0.4-0.1,0.8,0,0.9,0.4c0.1,0.4,0,0.8-0.4,0.9&#10;&#9;&#9;c0,0,0,0,0,0l-10,4C399.5,242.4,399.4,242.4,399.3,242.4z"/>
</g>
<g id="Character_chart-4-91">
	<path class="st2_chart-4-91" d="M162,154.4c-2.1,0.1-4.3,0.1-6.4-0.2c-1.2-0.1-2.3-0.3-3.3-0.8c-1.1-0.5-1.8-1.5-1.9-2.7&#10;&#9;&#9;c-0.1-1.2,0.8-2.2,1.9-2.4c-1.6-0.9-3.2-1.9-4.7-3c-1.2-0.9-2.3-2-3-3.3c-0.8-1.3-0.7-3,0.2-4.3c1.4-1.9,4.4-1.5,6.5-2.5l-4.4-2.9&#10;&#9;&#9;c-0.3-0.2-0.6-0.4-0.8-0.7c-0.5-0.7-0.5-1.6,0-2.3c0.5-0.7,1.1-1.2,1.8-1.6c3.4-2,7.3-2.7,11.2-2l-1.9-2.6&#10;&#9;&#9;c-0.2-0.2-0.4-0.6-0.4-0.9c-0.1-0.7,0.8-1.2,1.6-1.2c1.4,0,2.8,0.3,4.1,0.9c2.3,0.7,4.7,0.9,7,1.4c3.8,0.9,8.2,4.1,8.6,8.3&#10;&#9;&#9;c0.2,1.5-0.8,3-2.2,3.5c0.1,4.5-1.6,7.9-3.9,11.6c-1.3,2.2-3.6,5.2-5.9,6.6C164.7,153.9,163.3,154.3,162,154.4L162,154.4z"/>
	<path class="st1_chart-4-91" d="M160,155.2c-1.5,0-3-0.1-4.4-0.3c-1.2-0.1-2.5-0.4-3.6-0.9c-1.3-0.6-2.1-1.8-2.3-3.2c0-0.8,0.2-1.7,0.8-2.3&#10;&#9;&#9;c0.1-0.1,0.2-0.2,0.3-0.3c-1.2-0.7-2.4-1.5-3.5-2.4c-1.3-0.9-2.4-2.1-3.2-3.5c-0.9-1.6-0.8-3.5,0.2-5c1.1-1.4,2.7-1.7,4.3-2&#10;&#9;&#9;l1.2-0.3l-3.3-2.1c-0.4-0.2-0.7-0.5-1-0.8c-0.6-0.9-0.7-2.1-0.1-3.1c0.5-0.8,1.2-1.4,2-1.9c3-1.8,6.5-2.6,10.1-2.4l-0.9-1.2&#10;&#9;&#9;c-0.3-0.4-0.5-0.8-0.6-1.2c-0.1-1.2,1.1-1.9,2.2-2c1.2,0,2.4,0.2,3.6,0.7l0.8,0.3c1.3,0.4,2.7,0.6,4,0.8c1,0.2,2,0.3,3,0.6&#10;&#9;&#9;c4.1,1,8.7,4.4,9.1,9c0.1,1.7-0.7,3.2-2.2,4c-0.1,4.6-2,8.2-4,11.5c-0.7,1.2-3.3,5.1-6.1,6.8c-1.3,0.7-2.7,1.1-4.2,1.2l0,0&#10;&#9;&#9;C161.4,155.2,160.7,155.2,160,155.2L160,155.2z M162.1,154.4L162.1,154.4z M156.2,126.1c-2.8,0-5.6,0.8-8.1,2.2&#10;&#9;&#9;c-0.6,0.3-1.2,0.8-1.6,1.4c-0.3,0.5-0.3,1.1,0,1.5c0.2,0.2,0.4,0.4,0.6,0.5l4.4,2.9c0.3,0.2,0.4,0.6,0.2,1&#10;&#9;&#9;c-0.1,0.1-0.2,0.2-0.3,0.3c-0.9,0.4-1.8,0.7-2.8,0.8c-1.4,0.3-2.7,0.6-3.4,1.5c-0.7,1.1-0.7,2.4-0.1,3.5c0.7,1.2,1.7,2.2,2.9,3&#10;&#9;&#9;c1.5,1.1,3,2.1,4.6,3c0.3,0.2,0.5,0.6,0.3,1c-0.1,0.2-0.3,0.3-0.6,0.4c-0.3,0-0.6,0.2-0.8,0.4c-0.3,0.3-0.5,0.8-0.4,1.2&#10;&#9;&#9;c0.1,0.9,0.7,1.7,1.6,2.1c1,0.4,2,0.7,3.1,0.7c2.1,0.3,4.2,0.3,6.3,0.2c1.3-0.1,2.5-0.4,3.6-1c2.1-1.2,4.2-4.1,5.6-6.3&#10;&#9;&#9;c2.5-4,3.9-7.1,3.8-11.2c0-0.3,0.2-0.6,0.5-0.7c1.1-0.4,1.8-1.5,1.7-2.7c-0.3-3.7-4.3-6.8-8-7.7c-0.9-0.2-1.9-0.4-2.9-0.6&#10;&#9;&#9;c-1.4-0.2-2.8-0.5-4.2-0.9l-0.8-0.3c-1-0.4-2-0.6-3-0.6c-0.5,0-0.9,0.3-0.9,0.5c0.1,0.2,0.2,0.4,0.3,0.5l1.9,2.6&#10;&#9;&#9;c0.2,0.2,0.2,0.6,0,0.8c-0.1,0.2-0.4,0.4-0.7,0.3C158.1,126.2,157.2,126.1,156.2,126.1L156.2,126.1z"/>
	<path class="st2_chart-4-91" d="M178.1,141.2c0,0,4.1,4.5,3.5,5.7s-2.9,0.8-2.9,0.8"/>
	<path class="st1_chart-4-91" d="M179.5,148.4c-0.3,0-0.6,0-0.9-0.1c-0.4-0.1-0.6-0.5-0.5-0.8c0.1-0.3,0.4-0.6,0.7-0.5c0.8,0.1,2,0,2.2-0.4&#10;&#9;&#9;c0-0.5-1.6-2.8-3.4-4.9c-0.3-0.2-0.4-0.7-0.2-1c0.2-0.3,0.7-0.4,1-0.2c0.1,0.1,0.1,0.1,0.2,0.2c2,2.2,4.3,5.1,3.7,6.4&#10;&#9;&#9;C181.8,148.3,180.4,148.4,179.5,148.4L179.5,148.4z"/>
	<path class="st2_chart-4-91" d="M176.4,134.7c2.4,1.4,2.3,5.1,2.6,7.5c0.5,3.3,0.9,6.7,1.2,10.1c0.2,2.1-5.3,3-6.3,2.5l2.1,8.2l-12.2-2.7&#10;&#9;&#9;l-0.6-7c0,0,3.7-0.5,5.2-5.2s-0.2-14-0.2-14S174.1,133.2,176.4,134.7L176.4,134.7z"/>
	<path class="st1_chart-4-91" d="M176,163.7c0,0-0.1,0-0.1,0l-12.2-2.7c-0.3-0.1-0.5-0.3-0.6-0.6l-0.6-7c0-0.4,0.2-0.7,0.6-0.8&#10;&#9;&#9;c0.1,0,3.3-0.6,4.7-4.7c1.4-4.4-0.2-13.5-0.2-13.6c0-0.2,0-0.4,0.1-0.5c0.1-0.2,0.3-0.3,0.5-0.3c0.6-0.1,6.1-0.9,8.6,0.6l0,0&#10;&#9;&#9;c2.3,1.4,2.6,4.4,2.8,6.8c0,0.4,0.1,0.9,0.1,1.3c0.5,3.3,0.9,6.7,1.2,10.1c0,0.8-0.4,1.6-1.1,2c-1.5,0.9-3.2,1.4-5,1.4l1.9,7.2&#10;&#9;&#9;c0.1,0.4-0.1,0.7-0.5,0.8C176.1,163.6,176.1,163.7,176,163.7L176,163.7z M164.5,159.7l10.6,2.3l-1.8-7.1c-0.1-0.3,0-0.5,0.2-0.7&#10;&#9;&#9;c0.2-0.2,0.5-0.2,0.7-0.1c1.7,0.1,3.4-0.2,4.8-1.1c0.4-0.3,0.5-0.5,0.5-0.8c-0.3-3.3-0.7-6.7-1.2-10c-0.1-0.4-0.1-0.9-0.1-1.3&#10;&#9;&#9;c-0.2-2.1-0.5-4.7-2.1-5.7c-1.5-0.9-5-0.7-6.9-0.5c0.4,2.3,1.4,9.5,0.1,13.6c-0.7,2.6-2.6,4.6-5.1,5.5L164.5,159.7L164.5,159.7z"/>
	<path class="st2_chart-4-91" d="M179.8,149.8c0,0-2.4,2-4.1-0.5"/>
	<path class="st1_chart-4-91" d="M177.8,151.2c-0.1,0-0.2,0-0.4,0c-1-0.1-1.8-0.7-2.3-1.5c-0.2-0.3-0.2-0.8,0.2-1c0.3-0.2,0.8-0.2,1,0.2&#10;&#9;&#9;c0.3,0.5,0.8,0.8,1.4,0.9c0.6,0,1.3-0.2,1.8-0.6c0.3-0.3,0.7-0.2,1,0.1c0,0,0,0,0,0c0.3,0.3,0.2,0.7-0.1,1c0,0,0,0,0,0&#10;&#9;&#9;C179.6,150.9,178.7,151.3,177.8,151.2L177.8,151.2z"/>
	<path class="st2_chart-4-91" d="M172,144.3c-0.2-0.8-0.7-1.6-1.3-2.1c-0.4-0.5-0.9-1-1.4-1.3c-0.6-0.4-1.2-0.5-1.9-0.3c-0.5,0.2-1,0.7-1.1,1.2&#10;&#9;&#9;c-0.2,0.6-0.2,1.1-0.2,1.7c0.3,2.6,1.9,4.8,4.3,5.9l-0.2-0.2"/>
	<path class="st1_chart-4-91" d="M170.3,150.1c-0.1,0-0.1,0-0.2,0c-2.6-1.1-4.4-3.6-4.7-6.4c-0.1-0.7,0-1.4,0.2-2c0.3-0.8,0.8-1.3,1.6-1.6&#10;&#9;&#9;c0.8-0.3,1.8-0.1,2.5,0.3c0.6,0.4,1.1,0.9,1.6,1.5c0.7,0.7,1.2,1.5,1.4,2.5c0.1,0.4-0.2,0.7-0.6,0.8c-0.4,0.1-0.7-0.2-0.8-0.6l0,0&#10;&#9;&#9;c-0.2-0.7-0.6-1.3-1.1-1.8c-0.4-0.5-0.8-0.9-1.3-1.2c-0.4-0.3-0.8-0.3-1.3-0.2c-0.4,0.2-0.6,0.5-0.7,0.8c-0.1,0.5-0.2,0.9-0.1,1.4&#10;&#9;&#9;c0.2,2.2,1.5,4.1,3.4,5.1c0.1,0,0.3,0,0.4,0.1c0.3,0.2,0.4,0.6,0.3,1C170.7,150,170.5,150.1,170.3,150.1L170.3,150.1z"/>
	
		<ellipse transform="matrix(0.9795 -0.2016 0.2016 0.9795 -24.3658 38.2614)" class="st1_chart-4-91" cx="175.7" cy="138.8" rx="0.5" ry="1.2"/>
	<path class="st2_chart-4-91" d="M161.8,162.7l0.4-3.8l14.9-1.4l2.4,5.2C173.8,164.6,167.6,164.6,161.8,162.7L161.8,162.7z"/>
	<path class="st1_chart-4-91" d="M170.9,164.8c-3.1,0-6.3-0.5-9.3-1.4c-0.3-0.1-0.5-0.4-0.5-0.8l0.4-3.8c0-0.3,0.3-0.6,0.6-0.6l14.8-1.3&#10;&#9;&#9;c0.3,0,0.6,0.1,0.7,0.4l2.4,5.2c0.1,0.2,0.1,0.4,0,0.6c-0.1,0.2-0.2,0.3-0.4,0.4C176.9,164.4,173.8,164.9,170.9,164.8L170.9,164.8z&#10;&#9;&#9; M162.6,162.2c5.2,1.5,10.8,1.6,16,0.1l-1.9-4.1l-13.8,1.2L162.6,162.2z"/>
	<path class="st2_chart-4-91" d="M218.6,176.3c0,0,3.6-6.5,3.8-7.8s-0.2-3.7,0.5-5.6s2.9-3.7,4.3-1.4c0,0,0.1-4,3-2.2c2.6,1.5,4,4.5,3.5,7.4&#10;&#9;&#9;c-0.3,3.1-9.4,19.7-9.4,19.7"/>
	<path class="st1_chart-4-91" d="M224.4,187.2c-0.1,0-0.2,0-0.3-0.1c-0.3-0.2-0.5-0.6-0.3-0.9c2.5-4.6,9.1-17,9.3-19.4c0.5-2.7-0.8-5.4-3.2-6.8&#10;&#9;&#9;c-0.3-0.2-0.9-0.5-1.2-0.3s-0.7,1.3-0.7,1.9c0,0.4-0.3,0.7-0.7,0.7c-0.2,0-0.4-0.1-0.6-0.3c-0.5-0.8-0.9-0.7-1.1-0.7&#10;&#9;&#9;c-0.9,0.3-1.7,1.1-2,2c-0.3,1.2-0.5,2.5-0.4,3.7c0,0.6,0,1.1-0.1,1.7c-0.2,1.3-3.3,6.9-3.9,8c-0.1,0.4-0.4,0.6-0.8,0.6&#10;&#9;&#9;c-0.4-0.1-0.6-0.4-0.6-0.8c0-0.1,0.1-0.3,0.2-0.4c1.5-2.7,3.6-6.8,3.7-7.5c0-0.4,0-0.9,0.1-1.5c-0.1-1.4,0.1-2.8,0.5-4.2&#10;&#9;&#9;c0.5-1.5,1.7-2.6,3.1-2.9c0.5-0.1,0.9,0,1.4,0.3c0.2-0.7,0.6-1.3,1.2-1.7c0.9-0.4,1.9-0.2,2.6,0.4c2.8,1.6,4.4,4.9,3.8,8.1&#10;&#9;&#9;c-0.3,3.1-8.5,18.3-9.5,20C224.9,187.1,224.6,187.3,224.4,187.2L224.4,187.2z"/>
	<path class="st2_chart-4-91" d="M122.7,205.6c0,0-0.9,3.1-1.3,5.3c-0.2,2.1-0.2,4.2,0.1,6.3c-0.6-0.5-1.5-0.6-2.2-1c0.1,0.9,0,1.8-0.2,2.7&#10;&#9;&#9;c-0.2,0.9-0.9,1.6-1.8,1.9c-0.5,0.1-1,0.1-1.4,0c-1.7-0.2-4.6-0.8-5.3-2.6c-0.2-0.7-0.2-1.5,0-2.3c0.7-3.1,5-11.6,5.7-12.9"/>
	<path class="st1_chart-4-91" d="M116.8,221.6c-0.3,0-0.6,0-0.9-0.1c-1.5-0.2-5-0.7-5.8-3.1c-0.3-0.9-0.3-1.8,0-2.7c0.8-3.5,5.7-13,5.7-13.1&#10;&#9;&#9;c0.2-0.3,0.6-0.5,0.9-0.3c0,0,0,0,0,0c0.3,0.2,0.5,0.6,0.3,0.9c-1.2,2.4-5,10-5.6,12.8c-0.2,0.6-0.2,1.3-0.1,1.9&#10;&#9;&#9;c0.6,1.6,3.6,2,4.7,2.2c0.4,0.1,0.8,0.1,1.2,0c0.6-0.2,1.1-0.8,1.3-1.4c0.2-0.8,0.2-1.6,0.2-2.4c0-0.3,0.1-0.5,0.4-0.6&#10;&#9;&#9;c0.2-0.1,0.5-0.1,0.7,0c0.3,0.2,0.5,0.3,0.8,0.4h0.1c-0.2-1.7-0.2-3.5,0-5.2c0.4-2.3,1.2-5.3,1.3-5.4c0.1-0.4,0.5-0.6,0.9-0.5&#10;&#9;&#9;c0.4,0.1,0.6,0.5,0.5,0.9c0,0-0.9,3.1-1.2,5.2c-0.2,2-0.1,4.1,0.1,6.1c0,0.3-0.1,0.6-0.4,0.7c-0.3,0.1-0.6,0.1-0.8-0.1&#10;&#9;&#9;c-0.3-0.2-0.6-0.3-0.9-0.4h-0.1c0,0.6-0.1,1.2-0.2,1.8c-0.3,1.1-1.1,2-2.2,2.4C117.3,221.5,117,221.5,116.8,221.6L116.8,221.6z"/>
	<path class="st2_chart-4-91" d="M205.2,264.4c0,0-0.6,8.5,3,9.5s20.4-14.7,18.9-17.8s-7.7-3.7-12.9,1C211.4,259.8,208.4,262.2,205.2,264.4&#10;&#9;&#9;L205.2,264.4z"/>
	<path class="st1_chart-4-91" d="M208.6,274.7c-0.2,0-0.3,0-0.5-0.1c-4.1-1.1-3.6-9.3-3.6-10.3c0-0.2,0.1-0.4,0.3-0.6c3.2-2.2,6.2-4.6,9-7.2&#10;&#9;&#9;c3.1-2.8,6.9-4.1,10.1-3.5c1.6,0.2,3.1,1.2,3.9,2.7c0.4,0.7,0.4,2.2-2.8,6.1C221.2,266.5,212.2,274.7,208.6,274.7L208.6,274.7z&#10;&#9;&#9; M205.9,264.8c-0.1,2.3,0.2,7.8,2.5,8.4c1.9,0.5,10.6-6.4,15.5-12.3c3-3.6,2.6-4.5,2.6-4.5c-0.6-1-1.7-1.7-2.9-1.9&#10;&#9;&#9;c-2.2-0.4-5.6,0.2-8.9,3.1C212,260.2,209,262.6,205.9,264.8L205.9,264.8z"/>
	<path class="st1_chart-4-91" d="M166,229c0,0,21.9,4.1,37.6-0.1l1.4,35.5c0,0,6.2,1.7,12.1-7.3c0,0,2.9-44-1.3-45.8s-41.9,3.7-41.9,3.7&#10;&#9;&#9;L166,229z"/>
	<path class="st1_chart-4-91" d="M206.3,265.2c-0.5,0-1,0-1.5-0.2c-0.3-0.1-0.5-0.3-0.5-0.6l-1.3-34.7c-15.7,3.8-36.9,0-37.1-0.1&#10;&#9;&#9;c-0.2,0-0.4-0.2-0.5-0.4c-0.1-0.2-0.1-0.4,0-0.6l7.9-14c0.1-0.2,0.3-0.3,0.5-0.4c3.9-0.6,37.9-5.4,42.3-3.6s2.5,36,1.8,46.5&#10;&#9;&#9;c0,0.1,0,0.2-0.1,0.3C213.3,264.3,208.6,265.2,206.3,265.2L206.3,265.2z M205.7,263.8c1.5,0.2,6.2,0,10.8-7&#10;&#9;&#9;c1.8-27.1,0.9-44.1-0.9-44.9c-3-1.2-26.1,1.5-41.2,3.7l-7.2,12.9c4.4,0.7,22.8,3.3,36.3-0.3c0.2-0.1,0.4,0,0.6,0.1&#10;&#9;&#9;c0.2,0.1,0.3,0.3,0.3,0.5L205.7,263.8L205.7,263.8z"/>
	<path class="st1_chart-4-91" d="M153.7,223.8c0,0,5.9,32.6,4.9,33.3s-29.3,28.6-29.3,28.6l0.5,10.9c0,0,41.5-25.9,42.9-32.2s5-42.4,5-42.4&#10;&#9;&#9;L153.7,223.8L153.7,223.8z"/>
	<path class="st1_chart-4-91" d="M129.8,297.2c-0.1,0-0.2,0-0.3-0.1c-0.2-0.1-0.4-0.3-0.4-0.6l-0.5-10.9c0-0.2,0.1-0.4,0.2-0.5&#10;&#9;&#9;c4.5-4.5,26.6-26.3,29.2-28.5c0.3-2.2-2.9-21.1-5-32.7c0-0.2,0-0.4,0.1-0.6c0.1-0.2,0.3-0.3,0.5-0.3l24-1.9c0.2,0,0.4,0.1,0.6,0.2&#10;&#9;&#9;c0.1,0.1,0.2,0.4,0.2,0.6c-0.1,1.5-3.6,36.3-5,42.5s-39,30-43.2,32.6C130,297.1,129.9,297.2,129.8,297.2L129.8,297.2z M130,285.9&#10;&#9;&#9;l0.4,9.4c16.6-10.4,40.6-26.8,41.6-31.1c1.3-5.6,4.4-36.1,4.9-41.5l-22.4,1.8c5.8,32.4,4.9,32.9,4.4,33.2&#10;&#9;&#9;C157.9,258.3,141.2,274.8,130,285.9L130,285.9z M158.2,256.4L158.2,256.4L158.2,256.4z"/>
	<path class="st3_chart-4-91 targetColor" d="M192.5,168.8c0,0-2.3-7-23.9-7.6c-5.2-0.2-10.3,0.9-15,3.2c-0.3,3.4,0.2,51.2-1.1,62.7c0,0,26.6,5.4,36.9-11.9&#10;&#9;&#9;C189.5,215.1,191.2,172.5,192.5,168.8L192.5,168.8z" style="fill: rgb(104, 225, 253);"/>
	<path class="st2_chart-4-91" d="M83.4,242.4l6.4-23.6c0.4-1.5,1.9-2.4,3.4-2l39.4,10.7c1.5,0.4,2.4,1.9,2,3.4l-6.4,23.6&#10;&#9;&#9;c-0.4,1.5-1.9,2.4-3.4,2l-39.4-10.7C83.9,245.5,83,243.9,83.4,242.4z"/>
	<path class="st1_chart-4-91" d="M124.7,257.1c-0.4,0-0.8-0.1-1.2-0.2l0,0l-37.2-10.1c-2.5-0.7-3.9-3.2-3.3-5.7c0,0,0,0,0,0l5.8-21.5&#10;&#9;&#9;c0.7-2.5,3.2-3.9,5.7-3.3c0,0,0,0,0,0l37.2,10.1c2.5,0.7,3.9,3.2,3.3,5.7c0,0,0,0,0,0l-5.8,21.5&#10;&#9;&#9;C128.6,255.7,126.8,257.1,124.7,257.1L124.7,257.1z M123.9,255.6c1.7,0.5,3.5-0.5,4-2.3c0,0,0,0,0,0l5.8-21.5&#10;&#9;&#9;c0.5-1.7-0.5-3.5-2.3-4c0,0,0,0,0,0l-37.2-10.1c-1.7-0.5-3.5,0.5-4,2.3c0,0,0,0,0,0l-5.8,21.5c-0.5,1.7,0.5,3.5,2.3,4c0,0,0,0,0,0&#10;&#9;&#9;L123.9,255.6L123.9,255.6z"/>
	<path class="st0_chart-4-91" d="M128.5,235.5c-0.1,0-0.1,0-0.2,0l-35.4-9.6c-0.4-0.1-0.6-0.5-0.5-0.9c0.1-0.4,0.5-0.6,0.8-0.5l35.4,9.6&#10;&#9;&#9;c0.4,0.1,0.6,0.5,0.5,0.8C129.2,235.3,128.9,235.5,128.5,235.5L128.5,235.5z"/>
	<path class="st1_chart-4-91" d="M121.2,225.1c-0.1,0-0.1,0-0.2,0l-16.5-4.5c-0.4-0.1-0.6-0.5-0.5-0.9l0.9-3.2c0.5-2,2.6-3.1,4.5-2.6l10.8,2.9&#10;&#9;&#9;c2,0.5,3.1,2.6,2.6,4.5l-0.9,3.2c-0.1,0.2-0.2,0.3-0.3,0.4C121.5,225.1,121.4,225.1,121.2,225.1L121.2,225.1z M105.5,219.4&#10;&#9;&#9;l15.2,4.1l0.7-2.5c0.3-1.2-0.4-2.4-1.6-2.8c0,0,0,0,0,0l-10.8-2.9c-1.2-0.3-2.4,0.4-2.8,1.6c0,0,0,0,0,0L105.5,219.4L105.5,219.4z"/>
	<path class="st3_chart-4-91 targetColor" d="M158.8,162.3c0,0-20.4,8-25.1,12s-21.5,28.8-21.5,28.8l14.6,5.5c0,0,10.3-17.1,13.6-19.9s20.2-3.5,20.2-3.5&#10;&#9;&#9;L158.8,162.3L158.8,162.3z" style="fill: rgb(104, 225, 253);"/>
	<path class="st3_chart-4-91 targetColor" d="M192.5,168.8c0,0,15.4,20.1,17.2,18.6s8.4-15.9,8.4-15.9l11.2,9.4c0,0-4.1,25.8-16,24.8s-32.8-18.7-32.8-18.7&#10;&#9;&#9;L192.5,168.8L192.5,168.8z" style="fill: rgb(104, 225, 253);"/>
	<path class="st1_chart-4-91" d="M200,201.2c-0.1,0-0.2,0-0.3-0.1c-10.8-4.6-19.4-13.7-19.5-13.8c-0.3-0.3-0.3-0.7,0-1c0,0,0,0,0,0&#10;&#9;&#9;c0.3-0.3,0.7-0.3,1,0c0.1,0.1,8.6,9,19.1,13.5c0.4,0.2,0.5,0.6,0.4,0.9C200.5,201,200.3,201.2,200,201.2L200,201.2z"/>
	<path class="st1_chart-4-91" d="M153.1,217.3L153.1,217.3c-0.4,0-0.7-0.3-0.7-0.7c0,0,0,0,0,0c0.3-6.6,0.1-39.7,0.1-40.1&#10;&#9;&#9;c0-0.4,0.3-0.7,0.7-0.7l0,0c0.4,0,0.7,0.3,0.7,0.7c0,0.3,0.1,33.4-0.1,40.1C153.9,217,153.6,217.3,153.1,217.3L153.1,217.3z"/>
	<path class="st2_chart-4-91" d="M135.9,291c1.2-8.1-1.9-11.4-4.8-11.1s-4.7,0.1-5.7,8.1s0.6,20.1,5.1,20C135,307.9,134.7,299.1,135.9,291z"/>
	<path class="st1_chart-4-91" d="M130.5,308.7c-1.1,0-2-0.5-2.7-1.4c-2.9-3.3-4-12.8-3.1-19.5c1-7.8,2.9-8.4,6-8.7h0.3c1.4-0.1,2.7,0.4,3.6,1.4&#10;&#9;&#9;c1.9,2,2.6,5.7,1.9,10.5c-0.2,1.7-0.4,3.5-0.6,5.2C135.3,302.9,134.7,308.7,130.5,308.7L130.5,308.7z M131.5,280.6h-0.3h-0.3&#10;&#9;&#9;c-2.4,0.2-3.8,0.4-4.7,7.4c-0.8,6.3,0.1,15.4,2.7,18.4c0.4,0.5,1,0.8,1.6,0.9l0,0c2.9,0,3.4-5.2,4-11.2c0.2-1.7,0.4-3.5,0.6-5.2&#10;&#9;&#9;c0.8-5.8-0.6-8.3-1.5-9.3C133.1,280.9,132.3,280.5,131.5,280.6L131.5,280.6z"/>
</g>
<g id="Line_chart-4-91">
	<path class="st1_chart-4-91" d="M173.3,347.6c-0.4,0-0.7-0.3-0.7-0.7c0-0.3,0.2-0.6,0.5-0.7c41.3-12.1,62.1-50.4,77.2-78.3&#10;&#9;&#9;c9.7-17.8,16.7-30.7,25.3-29.4c9.6,1.5,14.1,6.8,18.4,11.9c5.4,6.4,10.5,12.5,25.5,11.8c26.8-1.2,94.9-136.2,95.6-137.6&#10;&#9;&#9;c0.2-0.3,0.6-0.5,0.9-0.3c0.3,0.2,0.5,0.6,0.3,0.9c-0.2,0.3-17.4,34.6-37.8,68.5c-27.5,45.8-47.3,69.2-59,69.8&#10;&#9;&#9;c-15.6,0.7-21.2-5.9-26.6-12.3c-4.3-5.1-8.4-10-17.5-11.5c-7.7-1.2-14.8,12-23.9,28.6c-15.3,28.1-36.2,66.6-78,78.9&#10;&#9;&#9;C173.4,347.6,173.4,347.6,173.3,347.6L173.3,347.6z"/>
	<path class="st1_chart-4-91" d="M415.7,139.7c-0.4,0-0.7-0.3-0.7-0.7c0,0,0,0,0,0v-12.8l-11.9,4.9c-0.3,0.2-0.8,0-0.9-0.3&#10;&#9;&#9;c-0.2-0.3,0-0.8,0.3-0.9c0,0,0.1,0,0.1,0l12.8-5.2c0.2-0.1,0.5-0.1,0.6,0.1c0.2,0.1,0.3,0.3,0.3,0.6V139&#10;&#9;&#9;C416.4,139.4,416.1,139.7,415.7,139.7L415.7,139.7L415.7,139.7z"/>
</g>
</svg>