<svg version="1.1" id="Layer_1" xmlns="http://www.w3.org/2000/svg" xmlns:xlink="http://www.w3.org/1999/xlink" x="0px" y="0px" viewBox="0 0 500 500" style="width: 166px;" xml:space="preserve" data-imageid="money-motivation-35" imageName="Money Motivation" class="illustrations_image">
<style type="text/css">
	.st0_money-motivation-35{fill:#007F68;}
	.st1_money-motivation-35{opacity:0.63;fill:url(#SVGID_1_);enable-background:new    ;}
	.st2_money-motivation-35{opacity:0.91;fill:url(#SVGID_00000026844008969009515930000006180860249906525097_);enable-background:new    ;}
	.st3_money-motivation-35{opacity:0.63;fill:url(#SVGID_00000162332350195188334120000008200191048734418851_);enable-background:new    ;}
	.st4_money-motivation-35{opacity:0.3;fill:#34323D;enable-background:new    ;}
	.st5_money-motivation-35{opacity:0.18;fill:#34323D;enable-background:new    ;}
	.st6_money-motivation-35{fill:#68E1FD;}
	.st7_money-motivation-35{opacity:0.12;fill:#34323D;enable-background:new    ;}
	.st8_money-motivation-35{opacity:0.31;fill:#34323D;enable-background:new    ;}
	.st9_money-motivation-35{fill:#8B54BA;}
	.st10_money-motivation-35{fill:#91D12C;}
	.st11_money-motivation-35{fill:#34323D;}
	.st12_money-motivation-35{fill:#F7931E;}
	.st13_money-motivation-35{opacity:0.2;fill:#34323D;enable-background:new    ;}
	.st14_money-motivation-35{opacity:0.3;fill:#FFFFFF;enable-background:new    ;}
	.st15_money-motivation-35{fill:#FFFFFF;}
	.st16_money-motivation-35{fill:#FCBF81;}
	.st17_money-motivation-35{fill:#EA4949;}
	.st18_money-motivation-35{fill:#FFB92C;}
</style>
<g id="background_money-motivation-35">
	<path class="st0_money-motivation-35" d="M242.2,421.5L14.6,286.9c-7.2-4.1-13.5-10.8-6.4-15.1l228.5-131.7c3.4-2.1,8.6-3.5,12.1-1.5l238.9,138.7&#10;&#9;&#9;c7.2,4.2,8.5,16,1.3,20.2L272.2,421.3C262.9,426.6,251.5,426.7,242.2,421.5z"/>
	
		<linearGradient id="SVGID_1_-money-motivation-35" gradientUnits="userSpaceOnUse" x1="50.8672" y1="191.0255" x2="74.8172" y2="229.3555" gradientTransform="matrix(1 0 0 -1 0 502)">
		<stop offset="0" style="stop-color:#007F68;stop-opacity:0"/>
		<stop offset="1" style="stop-color:#34323D;stop-opacity:0.5"/>
	</linearGradient>
	<path class="st1_money-motivation-35" d="M57.5,303.8l41.8-23.8c-8.7-5.9-15-7.4-22.5-14.7l-40.8,22.9C43.3,293.2,50.6,298.3,57.5,303.8z"/>
	
		<linearGradient id="SVGID_00000173144509971370917370000005388820433627230655_-money-motivation-35" gradientUnits="userSpaceOnUse" x1="282.5843" y1="155.953" x2="337.8943" y2="192.223" gradientTransform="matrix(1 0 0 -1 0 502)">
		<stop offset="0" style="stop-color:#007F68;stop-opacity:0"/>
		<stop offset="1" style="stop-color:#34323D;stop-opacity:0.5"/>
	</linearGradient>
	<path style="opacity:0.91;fill:url(#SVGID_00000173144509971370917370000005388820433627230655_);enable-background:new    ;" d="&#10;&#9;&#9;M309.4,342.6l45.6-25.9c-9.4-6.4-16.4-8.1-24.6-16l-44.5,25C294,331,301.9,336.5,309.4,342.6z"/>
	
		<linearGradient id="SVGID_00000022537649129274574730000000053603007791561101_-money-motivation-35" gradientUnits="userSpaceOnUse" x1="175.5832" y1="148.9142" x2="141.8332" y2="184.7042" gradientTransform="matrix(-1 0 0 -1 365.64 502)">
		<stop offset="0" style="stop-color:#007F68;stop-opacity:0"/>
		<stop offset="1" style="stop-color:#34323D;stop-opacity:0.5"/>
	</linearGradient>
	<path style="opacity:0.63;fill:url(#SVGID_00000022537649129274574730000000053603007791561101_);enable-background:new    ;" d="&#10;&#9;&#9;M202.1,310.5l56.3,29.1l-57.4,36h-1.5c-23.2-12.8-38.9-22.3-55.4-32.5C165.4,331.6,182.3,324.4,202.1,310.5z"/>
</g>
<g id="blog_money-motivation-35">
	<polyline class="st4_money-motivation-35" points="201.2,149.2 201.2,307.9 254.3,343 314.4,308.5 314.4,144.7 &#9;"/>
	<polygon class="st4_money-motivation-35" points="254.3,179 254.3,343 314.4,308.5 314.4,144.7 &#9;"/>
	<polygon class="st4_money-motivation-35" points="201.2,149.2 261.7,114.2 314.4,144.7 254.3,179 &#9;"/>
	<polyline class="st5_money-motivation-35" points="201.2,149.2 201.2,307.9 254.3,343 314.4,308.5 314.4,144.7 &#9;"/>
	<polyline class="st6_money-motivation-35 targetColor" points="201.2,149.2 201.2,307.9 254.3,343 314.4,308.5 314.4,144.7 &#9;" style="fill: rgb(104, 225, 253);"/>
	<polygon class="st6_money-motivation-35 targetColor" points="254.3,179 254.3,343 314.4,308.5 314.4,144.7 &#9;" style="fill: rgb(104, 225, 253);"/>
	<polyline class="st7_money-motivation-35" points="201.2,149.2 201.2,307.9 254.3,343 314.4,308.5 314.4,144.7 &#9;"/>
	<polygon class="st6_money-motivation-35 targetColor" points="254.3,179 254.3,343 314.4,308.5 314.4,144.7 &#9;" style="fill: rgb(104, 225, 253);"/>
	<polygon class="st8_money-motivation-35" points="254.3,179 254.3,343 314.4,308.5 314.4,144.7 &#9;"/>
	<polygon class="st6_money-motivation-35 targetColor" points="201.2,149.2 261.7,114.2 314.4,144.7 254.3,179 &#9;" style="fill: rgb(104, 225, 253);"/>
</g>
<g id="arrow_money-motivation-35">
	<polygon class="st9_money-motivation-35" points="356.8,116.2 336.5,140.9 351.2,140.9 351.2,182.8 362.1,182.8 362.1,141.2 376,141.2 &#9;"/>
	<polygon class="st9_money-motivation-35" points="358.1,217.6 362.1,211.7 362.1,146.1 372,146.1 376,141.2 364.7,126.4 354,145.5 &#9;"/>
	<polygon class="st8_money-motivation-35" points="364.7,126.4 364.7,126.4 356.8,116.2 336.5,140.9 351.2,140.9 351.2,182.8 356.1,182.8 358.1,217.6 &#10;&#9;&#9;362.1,211.7 362.1,182.8 362.1,146.1 372,146.1 376,141.2 &#9;"/>
	<polygon class="st9_money-motivation-35" points="352.8,121.1 332.5,145.9 347.1,145.9 347.1,217.6 358.1,217.6 358.1,146.1 372,146.1 &#9;"/>
</g>
<g id="plant_money-motivation-35">
	<path class="st10_money-motivation-35" d="M63.5,199.3c2.3-0.1,4.6,0.3,6.6,1.3c2.1,1.2,3.8,3.1,4.7,5.3c1,2.1,1.5,5.2,3.6,6.6c0.8,0.4,1.6,1.1,2.1,1.8&#10;&#9;&#9;c1,1.5,1.3,3.4,0.7,5.1c-0.9,1.9-4.9,3-6.6,2.7"/>
	<path class="st11_money-motivation-35" d="M61.7,199.5c-0.7,0.1-1.3,0.2-2,0.3c-4.3,1.4-8.2,5-9.3,9.3c-0.7,2.6-0.7,5.4-0.1,8c0.5,2.1,1.8,5.8,4.3,5.9&#10;&#9;&#9;c3.5,0.2,4.6-3.1,5.7-5.7s2.2-5.6,5-6.7c2.8-1.1,6-0.3,8.1,1.8L61.7,199.5z"/>
	<path class="st10_money-motivation-35" d="M77.7,213.7c-2.1-2.7-3.8-5.7-5.9-8.5c-1.1-1.8-2.5-3.5-4.1-4.9c-4.8-2.4-11-0.2-14.5,3.9&#10;&#9;&#9;c0.5,0.1,1.2,0.2,1.5,0.3c2.1,0.8,4.1,2.2,5.5,3.9c2.2,2.4,3.8,5.3,5.7,7.8c3.1,4.1,7.2,7.5,12.4,5&#10;&#9;&#9;C81.8,219.7,79.2,215.6,77.7,213.7z"/>
	<path class="st11_money-motivation-35" d="M94.8,178.6c0,0,10.9-0.9,10.7,16.4s-16.5,5.9-12.9-4.5"/>
	<path class="st10_money-motivation-35" d="M93.2,195.6c-0.1-5.2,5.8-9.1,10.8-9.8c-0.8-3-3.8-7.9-9.9-7.7c-7.5,0.2-13.1,7.8-14.3,16.8&#10;&#9;&#9;s5.5,14.6,5.5,14.6l3.6,3.1C95.5,210,93.1,200.4,93.2,195.6z"/>
	<path class="st11_money-motivation-35" d="M123,208c-0.2-3.3-1-6.5-2.5-9.4c-1.4-2.8-4-4.8-7.1-5.5l-6.2,11.8c0,0,9.2-16,5.4-3.7s8.6,26.2,10.3,7.8&#10;&#9;&#9;C122.9,208.7,123,208.3,123,208z"/>
	<path class="st6_money-motivation-35 targetColor" d="M79.5,238.8c0,0-8.2,5.4-5.9,17.9c0.8,4.3,2,8.6,3.7,12.7c1.6,4.1,2.8,9.3,6.9,11.6c3.8,2.1,9.7,2.5,13.6,0.2&#10;&#9;&#9;c3.5-2.1,4.8-7,6.1-10.7c1.5-4.5,2.6-9.1,3.2-13.8C110.8,226.4,79.5,238.8,79.5,238.8z" style="fill: rgb(104, 225, 253);"/>
	<ellipse class="st12_money-motivation-35" cx="90.6" cy="240.6" rx="12" ry="4.3"/>
	<path class="st11_money-motivation-35" d="M91.6,217.5c-1.7-4-4.8-7.4-5.8-11.8c-1.3-6,1.1-12.2,6.1-15.8c0.9-0.7,0-2.2-0.9-1.5&#10;&#9;&#9;c-7.7,5.6-9.1,15.1-4.7,23.2c1.4,2.5,3.2,4.9,4,7.7c1.1,3.6-0.1,6.2-1.8,8.9c0-2.7-0.9-5.7-2.7-7.3c-2-1.9-4.9-2.2-7.4-3&#10;&#9;&#9;c-4.8-1.6-9-4.3-9.8-9.7c-0.2-1.1-1.9-0.6-1.7,0.5c0.7,4.4,3.5,7.5,7.4,9.4c2.3,1,4.7,1.8,7.1,2.5c2.1,0.8,3.8,2.5,4.7,4.6&#10;&#9;&#9;c1.1,2.6,0.4,4.4-0.3,6.9c-0.8,3.3-2.1,6.1,0.1,9.2c0.7,0.9,2.2,0,1.5-0.9c-3.6-5,2.2-9.7,4.1-13.9&#10;&#9;&#9;C92.9,223.7,92.9,220.4,91.6,217.5z"/>
	<path class="st11_money-motivation-35" d="M113.7,206.7c-7.6-1.3-12.7,4.5-12.3,11.9c0.2,1.8,0.5,3.7,1,5.4c0.3,1.3,1.2,3.4,1,4.7&#10;&#9;&#9;c-0.5,2.3-2.1,4.2-4.3,5.1c-3.3,1.6-5.4,3.4-6.4,7c-0.1,0.5,0.2,0.9,0.7,1c0.4,0.1,0.8-0.2,1-0.6c1.8-6.4,10.7-5.5,10.8-12.6&#10;&#9;&#9;c0-3.4-1.8-6.7-2-10.1c-0.4-6,3.6-11.3,10-10.2C114.3,208.6,114.8,206.9,113.7,206.7z"/>
	<path class="st10_money-motivation-35" d="M120.4,198.6c-2.9-5.4-8.3-6.7-13.5-5.1c-0.7,0.3-1.4,0.6-2.1,1c-13.2,9.8-3.8,31.8-1.8,31.6&#10;&#9;&#9;c6.7-0.6,6-4.5,8.3-15.5c0.8-5.1,5.3-8.9,10.5-8.8C121.4,200.7,121,199.6,120.4,198.6z"/>
	<path class="st11_money-motivation-35" d="M117.6,195c-4.5-0.7-8.9,1.4-11.2,5.4c-4.8,8-3.7,17.4-3.1,26.3c0.1,1.1,1.9,1.1,1.8,0&#10;&#9;&#9;c-0.5-6.4-1.4-12.8,0.4-19.1c0.9-3.1,1.9-6.5,4.3-8.7c2.7-2.4,6.6-3,9.9-1.4c-0.2-0.3-0.4-0.6-0.7-0.9&#10;&#9;&#9;C118.5,196,118,195.5,117.6,195z"/>
</g>
<g id="stairs_money-motivation-35">
	<path class="st12_money-motivation-35" d="M194.4,218.3l-33.5,141.6c-0.8,3.4,4.4,4.9,5.2,1.4l33.5-141.6C200.4,216.4,195.2,214.9,194.4,218.3&#10;&#9;&#9;L194.4,218.3z"/>
	<path class="st12_money-motivation-35" d="M225.8,235.1l-33.5,141.6c-0.8,3.4,4.4,4.9,5.2,1.5L231,236.5C231.9,233.1,226.6,231.7,225.8,235.1&#10;&#9;&#9;L225.8,235.1z"/>
	<path class="st12_money-motivation-35" d="M190.9,240.6l31.4,17.6c3.1,1.7,5.8-3,2.7-4.7L193.6,236C190.5,234.3,187.8,239,190.9,240.6L190.9,240.6z"/>
	<path class="st12_money-motivation-35" d="M187.6,260.3l30.2,16.9c3.1,1.7,5.8-3,2.8-4.7l-30.2-16.9C187.3,253.9,184.5,258.6,187.6,260.3z"/>
	<path class="st12_money-motivation-35" d="M183.9,276.3l30.1,16.8c3.1,1.7,5.8-3,2.7-4.7l-30.1-16.8C183.6,269.9,180.9,274.6,183.9,276.3L183.9,276.3z"/>
	<path class="st12_money-motivation-35" d="M179.2,293.4l29.8,16.7c3.1,1.7,5.8-3,2.8-4.7l-29.9-16.7C178.8,287,176.1,291.7,179.2,293.4L179.2,293.4z"/>
	<path class="st12_money-motivation-35" d="M175.1,309.1l29.9,16.7c3.1,1.7,5.8-3,2.8-4.7l-29.9-16.7C174.8,302.7,172,307.4,175.1,309.1L175.1,309.1z"/>
	<path class="st12_money-motivation-35" d="M170.5,327.4l31.5,17.6c3.1,1.7,5.8-3,2.8-4.7l-31.4-17.6C170.2,321,167.5,325.7,170.5,327.4L170.5,327.4z"/>
</g>
<g id="money_money-motivation-35">
	<polygon class="st10_money-motivation-35" points="310.4,96.1 205,119.6 205,150.6 246.1,175.4 310.4,137.7 &#9;"/>
	<polygon class="st13_money-motivation-35" points="310.4,96.1 205,119.6 205,150.6 246.1,175.4 310.4,137.7 &#9;"/>
	<polyline class="st8_money-motivation-35" points="310.8,96.1 245.5,140.9 205,119.6 235.5,102.9 &#9;"/>
	<path class="st10_money-motivation-35" d="M197.3,113.2l38.9,22.5c11.9-1.9,23.3-5.9,33.8-11.9c17.4-9.9,41.4-28.4,41.4-28.4l-35.8-20.7L225,104.5&#10;&#9;&#9;C225,104.5,211.1,111.3,197.3,113.2z"/>
	<path class="st11_money-motivation-35" d="M236.8,134.8l-0.2-0.1l-36.4-21l1.4-0.3c9.1-2.2,18-5.2,26.6-9.2l46-27.1l33.3,19.3l-0.7,0.5&#10;&#9;&#9;c-0.2,0.2-21.9,16.8-37.5,25.7c-10.1,5.6-21,9.7-32.4,12.2L236.8,134.8z M203.3,114.1l33.7,19.5c11.1-2.5,21.8-6.6,31.8-12.1&#10;&#9;&#9;c14-8,32.8-22.2,36.6-25.1l-31.3-18.1l-45.4,26.8C220.5,108.9,212,111.9,203.3,114.1z"/>
	<polygon class="st13_money-motivation-35" points="245.5,140.9 245.5,175.4 310.4,137.7 310.4,96.1 &#9;"/>
	<path class="st7_money-motivation-35" d="M249,97.7l24.1-15l26.3,13.9c0,0-27.4,16.6-29.5,17.8s-24.9,13.7-34.9,13.2L212,114.8L249,97.7z"/>
	<ellipse class="st14_money-motivation-35" cx="256.9" cy="108.5" rx="20.7" ry="10"/>
	<path class="st8_money-motivation-35" d="M205,129.4c6.8,3.6,13.7,7.3,20.5,11l10.2,5.6l10.2,5.6h-0.5l16.2-10.6l16.2-10.5L294,120&#10;&#9;&#9;c5.4-3.5,10.9-6.9,16.4-10.3c-5.3,3.7-10.7,7.3-16,10.9l-16.2,10.8L262,141.9l-16.2,10.6l-0.3,0.2l-0.3-0.2l-10.1-5.7l-10.1-5.8&#10;&#9;&#9;C218.4,137.2,211.7,133.3,205,129.4z"/>
	<path class="st8_money-motivation-35" d="M205,134.2c6.8,3.6,13.7,7.3,20.4,11l10.2,5.6l10.2,5.6h-0.5l16.2-10.6l16.3-10.5l16.3-10.4&#10;&#9;&#9;c5.4-3.5,10.9-6.9,16.4-10.3c-5.3,3.7-10.7,7.3-16,10.9l-16.1,10.7L262,146.8l-16.2,10.6l-0.3,0.2l-0.3-0.2l-10.1-5.7l-10.1-5.8&#10;&#9;&#9;C218.4,142.1,211.7,138.2,205,134.2z"/>
	<path class="st8_money-motivation-35" d="M205.1,140.5c6.8,3.6,13.7,7.3,20.5,11l10.2,5.6l10.2,5.6h-0.5l16.2-10.6l16.2-10.5l16.3-10.4&#10;&#9;&#9;c5.4-3.5,10.9-6.9,16.4-10.3c-5.3,3.6-10.7,7.3-16,10.9l-16.1,10.7L262.2,153L246,163.6l-0.3,0.2l-0.3-0.2l-10.1-5.7l-10.1-5.8&#10;&#9;&#9;C218.5,148.3,211.8,144.4,205.1,140.5z"/>
	<path class="st8_money-motivation-35" d="M205,146.6c6.8,3.6,13.7,7.3,20.4,11l10.2,5.6l10.2,5.6h-0.5l16.2-10.6l16.3-10.5l16.3-10.4&#10;&#9;&#9;c5.4-3.5,10.9-6.9,16.4-10.3c-5.3,3.6-10.7,7.3-16,10.9l-16.1,10.7L262,159.1l-16.2,10.6l-0.3,0.2l-0.3-0.2l-10.1-5.7l-10.1-5.8&#10;&#9;&#9;C218.4,154.4,211.7,150.5,205,146.6z"/>
	<polygon class="st15_money-motivation-35" points="229.3,102 270,123.7 270,161.4 285.3,152.3 285.3,113.6 245.5,92.4 &#9;"/>
	<polygon class="st7_money-motivation-35" points="229.3,102 270,123.7 270,161.4 285.3,152.3 285.3,113.6 245.5,92.4 &#9;"/>
	<polygon class="st7_money-motivation-35" points="270,123.7 285.3,113.6 285.3,152.3 270,161.4 &#9;"/>
	<path class="st11_money-motivation-35" d="M261.3,105.5c1,0.1,2,0.4,2.9,0.8c0.6,0.3,1.2,0.7,1.5,1.3c0.3,0.5,0.3,1.1-0.1,1.6c-0.4,0.6-1,1.1-1.7,1.4&#10;&#9;&#9;l2.7,1.3l-1.5,0.8l-2.8-1.4c-1.3,0.5-2.7,0.8-4.1,0.8c-1.5,0.1-3-0.2-4.4-0.8l2.8-1.5c0.6,0.2,1.2,0.3,1.9,0.4c0.5,0,0.9,0,1.4-0.1&#10;&#9;&#9;l-4.1-2c-1.2,0.3-2.2,0.6-3,0.7c-0.9,0.2-1.8,0.2-2.7,0.1c-1-0.1-2-0.4-2.9-0.8c-0.7-0.3-1.2-0.7-1.6-1.4c-0.2-0.5-0.1-1.1,0.2-1.6&#10;&#9;&#9;c0.4-0.5,0.9-0.9,1.5-1.3l-2.7-1.3l1.5-0.8l2.7,1.3c1.3-0.5,2.6-0.8,4-0.8c1.4-0.1,2.8,0.2,4.2,0.7l-2.9,1.5&#10;&#9;&#9;c-0.5-0.2-1.1-0.3-1.7-0.3c-0.4,0-0.8,0-1.2,0.1l4,2h0.2c1.2-0.3,2.2-0.6,3.1-0.7C259.5,105.5,260.4,105.4,261.3,105.5z&#10;&#9;&#9; M262.2,108.7c0-0.3-0.3-0.6-0.8-0.9c-0.5-0.3-1.1-0.4-1.7-0.4c-0.6,0-1.1,0.1-1.7,0.2l3.7,1.8C262,109.2,262.2,109,262.2,108.7&#10;&#9;&#9; M253.2,106.8l-3.5-1.7c-0.2,0.1-0.4,0.4-0.4,0.7c0,0.3,0.2,0.6,0.8,0.8c0.5,0.2,1.1,0.4,1.7,0.4&#10;&#9;&#9;C252.2,107,252.7,106.9,253.2,106.8"/>
	<path class="st15_money-motivation-35" d="M296.2,95.3c0,0,0.6,9.1-6.5,9.6c0,0,6,2.5,7,7.2c0,0,0.7-6.6,6.8-7.3C299,103.9,296,99.9,296.2,95.3z"/>
</g>
<g id="character_money-motivation-35">
	<path class="st16_money-motivation-35" d="M229.4,153.7c0,0,3.5-4.2,3.8-5.6s0.5-7.2,1.5-7.3s1.6,1.1,2.2,0.9c0.9-0.3,1.8-0.4,2.7-0.5&#10;&#9;&#9;c0.2,0.1,3.7,3.8,3.3,5.2s-5.8,5.1-5.8,5.1l-6.6,7.2"/>
	<path class="st16_money-motivation-35" d="M196.3,146.1c0,0-0.6-5.4,0-6.8s3.6-6.2,2.8-6.9s-1.9,0-2.3-0.4s-1.7-1.9-2-1.9s-5.2,1.1-5.6,2.6&#10;&#9;&#9;s2.1,7.5,2.1,7.5l1.5,9.6"/>
	<path class="st17_money-motivation-35" d="M203.4,172.9c0,0-6.6-29.4-7.5-29.6c-2.2-0.2-4.5,0.3-6.4,1.5c-2.3,1.5,2.7,34.7,2.7,34.7"/>
	<path class="st8_money-motivation-35" d="M203.4,172.9c0,0-6.6-29.4-7.5-29.6c-2.2-0.2-4.5,0.3-6.4,1.5c-2.3,1.5,2.7,34.7,2.7,34.7"/>
	<path class="st11_money-motivation-35" d="M200.1,294.5l4.4,2c0.2,0.9,0.8,1.5,1.7,1.8c0.1,0.2,0.4,0.3,0.6,0.4c1.8,0.3,3.7,0.1,5.4-0.4&#10;&#9;&#9;c2.2-0.5,10.9-3,8.1,2.8c-1.6,1-3.4,1.8-5.1,2.6c-0.9,0.5-1.9,0.9-2.8,1.4c-0.5,0.3-1.1,0.5-1.6,0.6c-1.2,0.1-4.1-1.1-4.2-0.8&#10;&#9;&#9;s-0.6,2.6-0.6,2.6s-7.9,2.3-7.8-2.9C198.2,303.9,200.1,294.5,200.1,294.5z"/>
	<path class="st11_money-motivation-35" d="M196.1,287.1c0,0,7.9-2.8,9.7-2.8s4.8,0.9,1.9,4c0,0-8.4,4.6-9.5,4.7s-3.6-0.9-3.6-0.7s-0.5,2.3-0.5,2.3&#10;&#9;&#9;s-6.9,2-6.8-2.5c0-0.6,1.7-8.8,1.7-8.8"/>
	<path class="st6_money-motivation-35 targetColor" d="M197.5,247.9c0.3-15.2,1-30.5-1-45.7c0.2-3.9-2.5-1.6-2.2-3.1c2.4-12.4,19.3,3.9,19.3,3.9&#10;&#9;&#9;c0.7,0.7,0.5,4.5,0.6,5.4c0.4,4.9,0.8,9.7,0.9,14.6c1.1,24.6-2,48.7-5.2,73.1c-4.2,3.6-6.8,4.6-12.8,1.6c0-16.1,0.2-32.2,0.4-48.3&#10;&#9;&#9;L197.5,247.9z" style="fill: rgb(104, 225, 253);"/>
	<path class="st6_money-motivation-35 targetColor" d="M187.4,274.7c0.4-6,1.1-12.1,1.6-18.1c0.8-9.2,0.6-18.4,0.7-27.6c1.1-11.4,2.3-25.9,2.3-25.9l9.4,2.6&#10;&#9;&#9;c0,0,6.1,79.5-3.3,82.8s-10.9-2.8-10.9-2.8S187.3,281.2,187.4,274.7z" style="fill: rgb(104, 225, 253);"/>
	<path class="st17_money-motivation-35" d="M191.3,202.6c0-1.6,0.3-3.2,0.6-4.7c0.7-5.1,0.7-10.2,0-15.2c-0.6-4.9-0.6-9.9,2.4-14.1&#10;&#9;&#9;c4.3-2.5,10.4-0.3,14,2.4c4.9,3.6,6.6,28.4,6.5,36.1c0,1.1-6.6,1.6-7.3,1.7c-3.4,0.3-6.8,0.1-10.2-0.8c-2.4-0.6-5.3-1.8-6-4.4&#10;&#9;&#9;C191.3,203.2,191.3,202.9,191.3,202.6z"/>
	<path class="st11_money-motivation-35" d="M197.4,209.7c0.1-0.4,0.5-0.6,0.9-0.4c0.4,0.1,0.6,0.5,0.4,0.9c-4.5,13.7,2.9,27.9,1.5,41.9&#10;&#9;&#9;c-0.8,7.4-2.1,14.6-2.5,22c-0.4,7.9-0.4,15.8,0.2,23.6c0.1,0.9-1.3,0.8-1.4-0.1c-0.6-7.9-0.7-15.7-0.2-23.6&#10;&#9;&#9;c0.5-7.8,2-15.5,2.6-23.2C200.1,237,193,223.3,197.4,209.7z"/>
	<path class="st16_money-motivation-35" d="M202.7,154.5c0.4,0.1,4.2,7.9,3,12.8s-9.5,0.2-11.7-3.3S194.9,152.8,202.7,154.5z"/>
	<path class="st11_money-motivation-35" d="M202.6,155.6c0,1.5-0.8,2.9-2.1,3.6c-2.3,0.9-4.1,1.6-4,2.6s4.1-0.3,4.2,2.1c0.1,1.6-0.1,3.3-0.5,4.9&#10;&#9;&#9;c-0.2,1.2-7.2-2.2-9.7-8.3s3.1-8,3.4-8.1s0.7-1.8,3.5-2.5s3.6,0.3,3.6,0.3c1.3-0.8,2.9-0.7,4.1,0.3c2.6,1.9,2.1,5.7-0.7,7.3&#10;&#9;&#9;L202.6,155.6z"/>
	<path class="st17_money-motivation-35" d="M204,169c0,0,8.5,0.1,12.3-2.9s14.8-17.7,14.8-17.7s8,5.5,8,7.3s-13.6,20.6-17.3,22.8s-11.6,6.8-11.6,6.8"/>
	<path class="st17_money-motivation-35" d="M212.7,183.7c0,0-2.9-0.1-4.2,0s6,13.7,6,13.7L212.7,183.7z"/>
	<path class="st8_money-motivation-35" d="M212.7,183.7c0,0-2.9-0.1-4.2,0s6,13.7,6,13.7L212.7,183.7z"/>
</g>
<g id="coins_money-motivation-35">
	<ellipse class="st12_money-motivation-35" cx="332.1" cy="305.7" rx="29.6" ry="17.4"/>
	<polygon class="st12_money-motivation-35" points="302.5,305.7 302.5,300.7 305.7,304.7 &#9;"/>
	<polygon class="st12_money-motivation-35" points="361.8,300.7 361.8,305.7 358,305.7 360.8,301.7 &#9;"/>
	<ellipse class="st18_money-motivation-35" cx="332.1" cy="300.7" rx="29.6" ry="17.4"/>
	<path class="st12_money-motivation-35" d="M347.2,298.4c0.2,0.4,0.3,0.9,0.2,1.3l-0.1,0.5h-5.4c0.1-0.1,0.1-0.3,0.1-0.5c0-0.4-0.1-0.7-0.3-1&#10;&#9;&#9;c-0.3-0.5-0.8-0.9-1.3-1.2c-0.8-0.4-1.7-0.6-2.5-0.7c-0.8-0.1-1.7,0.1-2.4,0.4c-0.8,0.3-1,0.8-0.9,1.3c0.3,0.6,0.6,1.2,1.1,1.7&#10;&#9;&#9;c0.6,0.6,1.1,1.2,1.6,1.9c0.5,0.6,0.6,1.4,0.3,2.1c-0.6,1-1.5,1.7-2.6,2c-1.8,0.8-3.8,1.2-5.7,1.2c-2.1,0.1-4.2-0.2-6.3-0.9&#10;&#9;&#9;l-3.1,1.3l-3.6-1.8l3-1.3c-0.5-0.4-1-0.8-1.5-1.3c-0.3-0.4-0.6-0.8-0.7-1.2c-0.1-0.3-0.2-0.7-0.2-1c0-0.2,0-0.5,0-0.7l0.1-0.3h5.4&#10;&#9;&#9;c-0.1,0.2-0.1,0.4-0.1,0.5c0,0.4,0.2,0.9,0.4,1.2c0.4,0.7,1.1,1.2,1.8,1.5c1,0.5,2,0.8,3.1,0.8c1,0.1,2-0.1,2.9-0.5&#10;&#9;&#9;c0.8-0.3,1-0.8,0.8-1.3c-0.3-0.6-0.7-1.2-1.2-1.7c-0.6-0.6-1.2-1.2-1.7-1.9c-0.5-0.6-0.6-1.4-0.2-2.1c0.6-1,1.6-1.7,2.8-2.1&#10;&#9;&#9;c1.7-0.7,3.6-1.1,5.5-1.1c2-0.1,4,0.2,5.9,0.9l3.1-1.3l3.4,1.9l-3.1,1.3C346.4,297.1,346.9,297.7,347.2,298.4z"/>
	<path class="st12_money-motivation-35" d="M332.2,316.6c-14.4,0-26-7.1-26-15.7s11.7-15.7,26-15.7s26,7.1,26,15.7S346.5,316.6,332.2,316.6z&#10;&#9;&#9; M332.2,287.5c-13.1,0-23.7,6-23.7,13.4s10.6,13.4,23.7,13.4s23.7-6,23.7-13.4S345.3,287.5,332.2,287.5z"/>
	<ellipse class="st12_money-motivation-35" cx="332.1" cy="293.1" rx="29.6" ry="17.4"/>
	<polygon class="st12_money-motivation-35" points="302.5,293.1 302.5,288.1 305.7,292.1 &#9;"/>
	<polygon class="st12_money-motivation-35" points="361.8,288.1 361.8,293.1 358,293.1 360.8,289.1 &#9;"/>
	<ellipse class="st18_money-motivation-35" cx="332.1" cy="288.1" rx="29.6" ry="17.4"/>
	<path class="st12_money-motivation-35" d="M347.2,285.8c0.2,0.4,0.3,0.9,0.2,1.3l-0.1,0.5h-5.4c0.2-0.5,0.1-1-0.2-1.4c-0.3-0.5-0.8-0.9-1.3-1.2&#10;&#9;&#9;c-0.8-0.4-1.7-0.6-2.5-0.7c-0.8-0.1-1.7,0.1-2.4,0.4c-0.8,0.3-1,0.8-0.9,1.3c0.3,0.6,0.6,1.2,1.1,1.7c0.6,0.6,1.1,1.2,1.6,1.9&#10;&#9;&#9;c0.5,0.6,0.6,1.4,0.3,2.1c-0.6,1-1.5,1.7-2.6,2c-1.8,0.8-3.8,1.2-5.7,1.2c-2.1,0.1-4.2-0.2-6.2-0.8l-3.1,1.3l-3.6-1.8l3-1.3&#10;&#9;&#9;c-0.5-0.4-1-0.8-1.5-1.3c-0.3-0.4-0.6-0.8-0.7-1.2c-0.1-0.3-0.2-0.7-0.2-1c0-0.2,0-0.5,0-0.7l0.1-0.2h5.4c-0.1,0.2-0.1,0.4-0.1,0.5&#10;&#9;&#9;c0,0.4,0.2,0.9,0.4,1.2c0.4,0.7,1.1,1.2,1.8,1.5c1,0.5,2,0.8,3.1,0.8c1,0.1,2-0.1,2.9-0.5c0.8-0.3,1-0.7,0.8-1.3&#10;&#9;&#9;c-0.3-0.6-0.7-1.2-1.2-1.7c-0.6-0.6-1.2-1.2-1.7-1.9c-0.5-0.6-0.6-1.4-0.2-2.1c0.6-1,1.6-1.7,2.8-2.1c1.7-0.7,3.6-1.1,5.5-1.1&#10;&#9;&#9;c2-0.1,4,0.2,5.9,0.9l3.1-1.3l3.4,1.9l-3.1,1.3C346.4,284.6,346.9,285.1,347.2,285.8z"/>
	<path class="st12_money-motivation-35" d="M332.2,304.1c-14.4,0-26-7.1-26-15.7s11.7-15.7,26-15.7s26,7,26,15.7S346.5,304.1,332.2,304.1z M332.2,274.9&#10;&#9;&#9;c-13.1,0-23.7,6-23.7,13.4s10.6,13.4,23.7,13.4s23.7-6,23.7-13.4S345.3,274.9,332.2,274.9z"/>
	<ellipse class="st12_money-motivation-35" cx="332.1" cy="287.1" rx="29.6" ry="17.4"/>
	<polygon class="st12_money-motivation-35" points="302.5,287.1 302.5,282.1 305.7,286.1 &#9;"/>
	<polygon class="st12_money-motivation-35" points="361.8,282.1 361.8,287.1 358,287.1 360.8,283.1 &#9;"/>
	<ellipse class="st18_money-motivation-35" cx="332.1" cy="282.1" rx="29.6" ry="17.4"/>
	<path class="st12_money-motivation-35" d="M347.2,279.8c0.2,0.4,0.3,0.9,0.2,1.3l-0.1,0.5h-5.4c0.1-0.1,0.1-0.3,0.1-0.5c0-0.4-0.1-0.7-0.3-1&#10;&#9;&#9;c-0.3-0.5-0.8-0.9-1.3-1.2c-0.8-0.4-1.7-0.6-2.5-0.7c-0.8-0.1-1.7,0.1-2.4,0.4c-0.8,0.3-1,0.8-0.9,1.3c0.3,0.6,0.6,1.2,1.1,1.7&#10;&#9;&#9;c0.6,0.6,1.1,1.2,1.6,1.9c0.5,0.6,0.6,1.4,0.3,2.1c-0.6,1-1.5,1.7-2.6,2c-1.8,0.8-3.8,1.2-5.7,1.2c-2.1,0.1-4.2-0.1-6.2-0.8&#10;&#9;&#9;l-3.1,1.3l-3.6-1.8l3-1.3c-0.5-0.4-1-0.8-1.5-1.3c-0.3-0.4-0.6-0.8-0.7-1.2c-0.1-0.3-0.2-0.7-0.2-1c0-0.2,0-0.5,0-0.7l0.1-0.2h5.4&#10;&#9;&#9;c-0.1,0.2-0.1,0.4-0.1,0.5c0,0.4,0.2,0.9,0.4,1.2c0.4,0.7,1.1,1.2,1.8,1.5c1,0.5,2,0.8,3.1,0.8c1,0.1,2-0.1,2.9-0.5&#10;&#9;&#9;c0.8-0.3,1-0.7,0.8-1.3c-0.3-0.6-0.7-1.2-1.2-1.7c-0.6-0.6-1.2-1.2-1.7-1.9c-0.5-0.6-0.6-1.4-0.2-2.1c0.6-1,1.6-1.7,2.8-2.1&#10;&#9;&#9;c1.7-0.7,3.6-1.1,5.5-1.1c2-0.1,4,0.2,5.9,0.9l3.1-1.3l3.4,1.9l-3.1,1.3C346.4,278.6,346.9,279.1,347.2,279.8z"/>
	<path class="st12_money-motivation-35" d="M332.2,298.1c-14.4,0-26-7.1-26-15.7s11.7-15.7,26-15.7s26,7.1,26,15.7S346.5,298.1,332.2,298.1z&#10;&#9;&#9; M332.2,268.9c-13.1,0-23.7,6-23.7,13.4s10.6,13.4,23.7,13.4s23.7-6,23.7-13.4S345.3,268.9,332.2,268.9z"/>
	<ellipse class="st12_money-motivation-35" cx="332.1" cy="281" rx="29.6" ry="17.4"/>
	<polygon class="st12_money-motivation-35" points="302.5,281 302.5,276 305.7,280 &#9;"/>
	<polygon class="st12_money-motivation-35" points="361.8,276 361.8,281 358,281 360.8,277 &#9;"/>
	<ellipse class="st18_money-motivation-35" cx="332.1" cy="276" rx="29.6" ry="17.4"/>
	<path class="st12_money-motivation-35" d="M347.2,273.7c0.2,0.4,0.3,0.9,0.2,1.3l-0.1,0.5l-5.4,0c0.1-0.1,0.1-0.3,0.1-0.5c0-0.4-0.1-0.7-0.3-1&#10;&#9;&#9;c-0.3-0.5-0.8-0.9-1.3-1.2c-0.8-0.4-1.7-0.6-2.5-0.7c-0.8-0.1-1.7,0.1-2.4,0.4c-0.8,0.3-1,0.8-0.9,1.3c0.3,0.6,0.6,1.2,1.1,1.7&#10;&#9;&#9;c0.6,0.6,1.1,1.2,1.6,1.9c0.5,0.6,0.6,1.4,0.3,2.1c-0.6,1-1.5,1.7-2.6,2c-1.8,0.8-3.8,1.2-5.7,1.2c-2.1,0.1-4.2-0.2-6.3-0.9&#10;&#9;&#9;l-3.1,1.3l-3.6-1.8l3-1.3c-0.5-0.4-1-0.8-1.5-1.3c-0.3-0.4-0.6-0.8-0.7-1.2c-0.1-0.3-0.2-0.7-0.2-1c0-0.2,0-0.5,0-0.7l0.1-0.3h5.4&#10;&#9;&#9;c-0.1,0.2-0.1,0.4-0.1,0.5c0,0.4,0.2,0.9,0.4,1.2c0.4,0.7,1.1,1.2,1.8,1.5c1,0.5,2,0.8,3.1,0.8c1,0.1,2-0.1,2.9-0.5&#10;&#9;&#9;c0.8-0.3,1-0.8,0.8-1.3c-0.3-0.6-0.7-1.2-1.2-1.7c-0.6-0.6-1.2-1.2-1.7-1.9c-0.5-0.6-0.6-1.4-0.2-2.1c0.6-1,1.6-1.7,2.8-2.1&#10;&#9;&#9;c1.7-0.7,3.6-1.1,5.5-1.1c2-0.1,4,0.2,5.9,0.9l3.1-1.3l3.4,1.9l-3.1,1.4C346.4,272.4,346.9,273,347.2,273.7z"/>
	<path class="st12_money-motivation-35" d="M332.2,291.9c-14.4,0-26-7.1-26-15.7s11.7-15.7,26-15.7s26,7.1,26,15.7S346.5,291.9,332.2,291.9z&#10;&#9;&#9; M332.2,262.8c-13.1,0-23.7,6-23.7,13.4s10.6,13.4,23.7,13.4s23.7-6,23.7-13.4S345.3,262.8,332.2,262.8z"/>
	<ellipse class="st12_money-motivation-35" cx="324.1" cy="270.3" rx="29.6" ry="17.4"/>
	<polygon class="st12_money-motivation-35" points="294.5,270.3 294.5,265.3 297.7,269.3 &#9;"/>
	<polygon class="st12_money-motivation-35" points="353.8,265.3 353.8,270.3 350,270.3 352.8,266.3 &#9;"/>
	<ellipse class="st18_money-motivation-35" cx="324.1" cy="265.3" rx="29.6" ry="17.4"/>
	<path class="st12_money-motivation-35" d="M339.2,263c0.2,0.4,0.3,0.9,0.2,1.3l-0.1,0.5h-5.4c0-0.2,0.1-0.3,0.1-0.5c0-0.4-0.1-0.7-0.3-1&#10;&#9;&#9;c-0.3-0.5-0.8-0.9-1.3-1.2c-0.8-0.4-1.7-0.6-2.5-0.7c-0.8-0.1-1.6,0.1-2.4,0.4c-0.8,0.3-1,0.8-0.9,1.3c0.3,0.6,0.6,1.2,1.1,1.7&#10;&#9;&#9;c0.6,0.6,1.1,1.2,1.6,1.9c0.5,0.6,0.6,1.4,0.3,2.1c-0.6,1-1.5,1.7-2.6,2c-1.8,0.8-3.8,1.2-5.7,1.2c-2.1,0.1-4.3-0.2-6.3-0.9&#10;&#9;&#9;l-3.1,1.3l-3.6-1.8l3-1.3c-0.5-0.4-1-0.8-1.5-1.3c-0.3-0.4-0.5-0.8-0.7-1.2c-0.1-0.3-0.2-0.7-0.2-1c0-0.2,0-0.5,0-0.7l0.1-0.3h5.4&#10;&#9;&#9;c-0.1,0.2-0.1,0.4-0.1,0.5c0,0.4,0.2,0.9,0.4,1.2c0.4,0.7,1.1,1.2,1.8,1.5c1,0.5,2.1,0.8,3.1,0.8c1,0.1,2-0.1,2.9-0.5&#10;&#9;&#9;c0.8-0.3,1-0.8,0.9-1.3c-0.3-0.6-0.7-1.2-1.2-1.7c-0.6-0.6-1.1-1.2-1.6-1.9c-0.5-0.6-0.6-1.4-0.2-2.1c0.6-1,1.6-1.7,2.8-2.1&#10;&#9;&#9;c1.8-0.7,3.6-1.1,5.5-1.1c2-0.1,4,0.2,5.9,0.9l3.1-1.3l3.4,1.9l-3.1,1.3C338.5,261.7,338.9,262.3,339.2,263z"/>
	<path class="st12_money-motivation-35" d="M324.2,281.2c-14.4,0-26-7-26-15.7s11.7-15.7,26-15.7s26,7.1,26,15.7S338.6,281.2,324.2,281.2z M324.2,252.1&#10;&#9;&#9;c-13.1,0-23.7,6-23.7,13.4s10.6,13.4,23.7,13.4s23.7-6,23.7-13.4S337.3,252.1,324.2,252.1z"/>
	<ellipse class="st12_money-motivation-35" cx="324.1" cy="264" rx="29.6" ry="17.4"/>
	<polygon class="st12_money-motivation-35" points="294.5,264 294.5,259 297.7,263 &#9;"/>
	<polygon class="st12_money-motivation-35" points="353.8,259 353.8,264 350,264 352.8,260 &#9;"/>
	<ellipse class="st18_money-motivation-35" cx="324.1" cy="259" rx="29.6" ry="17.4"/>
	<path class="st12_money-motivation-35" d="M339.2,256.6c0.2,0.4,0.3,0.9,0.2,1.3l-0.1,0.5h-5.4c0-0.2,0.1-0.3,0.1-0.5c0-0.4-0.1-0.7-0.3-1&#10;&#9;&#9;c-0.3-0.5-0.8-0.9-1.3-1.2c-0.8-0.4-1.7-0.6-2.5-0.7c-0.8-0.1-1.6,0.1-2.4,0.4c-0.8,0.3-1,0.8-0.9,1.3c0.3,0.6,0.6,1.2,1.1,1.7&#10;&#9;&#9;c0.6,0.6,1.1,1.2,1.6,1.9c0.5,0.6,0.6,1.4,0.3,2.1c-0.6,1-1.5,1.7-2.6,2c-1.8,0.7-3.8,1.2-5.7,1.2c-2.1,0.1-4.3-0.2-6.3-0.9&#10;&#9;&#9;l-3.1,1.3l-3.6-1.8l3-1.3c-0.5-0.4-1-0.8-1.5-1.3c-0.3-0.4-0.6-0.8-0.7-1.2c-0.1-0.3-0.2-0.7-0.2-1c0-0.2,0-0.5,0-0.7l0.1-0.2h5.4&#10;&#9;&#9;c-0.1,0.2-0.1,0.4-0.1,0.5c0,0.4,0.2,0.9,0.4,1.2c0.4,0.7,1.1,1.2,1.8,1.5c1,0.5,2.1,0.8,3.1,0.8c1,0.1,2-0.1,2.9-0.5&#10;&#9;&#9;c0.8-0.3,1-0.7,0.9-1.3c-0.3-0.6-0.7-1.2-1.2-1.7c-0.6-0.6-1.1-1.2-1.6-1.9c-0.5-0.6-0.6-1.4-0.2-2.1c0.6-1,1.6-1.7,2.8-2.1&#10;&#9;&#9;c1.8-0.7,3.6-1.1,5.5-1.1c2-0.1,4,0.2,5.9,0.9l3.1-1.3l3.4,1.9l-3.1,1.5C338.4,255.4,338.9,256,339.2,256.6z"/>
	<path class="st12_money-motivation-35" d="M324.2,274.9c-14.4,0-26-7.1-26-15.7s11.7-15.7,26-15.7s26,7.1,26,15.7S338.6,274.9,324.2,274.9z&#10;&#9;&#9; M324.2,245.7c-13.1,0-23.7,6-23.7,13.4s10.6,13.4,23.7,13.4s23.7-6,23.7-13.4S337.3,245.7,324.2,245.7L324.2,245.7z"/>
	<ellipse class="st12_money-motivation-35" cx="324.6" cy="258" rx="29.6" ry="17.4"/>
	<polygon class="st12_money-motivation-35" points="295,258 295,252.9 298.2,257 &#9;"/>
	<polygon class="st12_money-motivation-35" points="354.3,252.9 354.3,258 350.5,258 353.2,253.9 &#9;"/>
	<ellipse class="st18_money-motivation-35" cx="324.6" cy="252.9" rx="29.6" ry="17.4"/>
	<path class="st12_money-motivation-35" d="M339.6,250.6c0.2,0.4,0.3,0.9,0.2,1.3l-0.1,0.5h-5.4c0-0.2,0.1-0.3,0.1-0.5c0-0.4-0.1-0.7-0.3-1&#10;&#9;&#9;c-0.3-0.5-0.8-0.9-1.3-1.2c-0.8-0.4-1.7-0.6-2.5-0.7c-0.8-0.1-1.7,0.1-2.4,0.4c-0.8,0.3-1,0.8-0.9,1.3c0.3,0.6,0.6,1.2,1.1,1.7&#10;&#9;&#9;c0.6,0.6,1.1,1.2,1.6,1.9c0.5,0.6,0.6,1.4,0.3,2.1c-0.6,1-1.5,1.7-2.6,2c-1.8,0.8-3.8,1.2-5.7,1.2c-2.1,0.1-4.2-0.2-6.3-0.9&#10;&#9;&#9;l-3.1,1.3l-3.6-1.8l3-1.3c-0.5-0.4-1-0.8-1.5-1.3c-0.3-0.4-0.6-0.8-0.7-1.2c-0.1-0.3-0.2-0.7-0.2-1c0-0.2,0-0.5,0-0.7l0.1-0.2h5.4&#10;&#9;&#9;c-0.1,0.2-0.1,0.4-0.1,0.6c0,0.4,0.2,0.9,0.4,1.2c0.4,0.7,1.1,1.2,1.8,1.5c1,0.5,2,0.8,3.1,0.8c1,0.1,2-0.1,2.9-0.5&#10;&#9;&#9;c0.8-0.3,1-0.7,0.8-1.3c-0.3-0.6-0.7-1.2-1.2-1.7c-0.6-0.6-1.2-1.2-1.7-1.9c-0.5-0.6-0.6-1.4-0.2-2.1c0.6-1,1.6-1.7,2.8-2.1&#10;&#9;&#9;c1.7-0.7,3.6-1.1,5.5-1.1c2-0.1,4,0.2,5.9,0.9l3.1-1.3l3.4,1.9l-3.1,1.3C338.9,249.3,339.4,249.9,339.6,250.6z"/>
	<path class="st12_money-motivation-35" d="M324.7,268.9c-14.4,0-26-7.1-26-15.7s11.7-15.7,26-15.7s26,7,26,15.7S339,268.9,324.7,268.9z M324.7,239.7&#10;&#9;&#9;c-13.1,0-23.7,6-23.7,13.4s10.6,13.4,23.7,13.4s23.7-6,23.7-13.4S337.8,239.7,324.7,239.7L324.7,239.7z"/>
	<path class="st15_money-motivation-35" d="M349,244.6c0,0,0.8,11.7-8.3,12.4c0,0,7.7,3.2,8.9,9.3c0,0,1-8.5,8.7-9.4C352.7,255.6,348.7,250.4,349,244.6z&#10;&#9;&#9;"/>
</g>
</svg>