<svg version="1.1" id="Layer_1" xmlns="http://www.w3.org/2000/svg" xmlns:xlink="http://www.w3.org/1999/xlink" x="0px" y="0px" viewBox="0 0 500 500" style="width: 166px;" xml:space="preserve" data-imageid="target-72" imageName="Target" class="illustrations_image">
<style type="text/css">
	.st0_target-72{fill:#093F68;}
	.st1_target-72{fill:#68E1FD;}
	.st2_target-72{fill:#FFFFFF;}
	.st3_target-72{fill:#F56132;}
	.st4_target-72{fill:#FFBC0E;}
</style>
<g id="target_target-72">
	<path class="st0_target-72" d="M264.4,418.5V81.8c0.1-2.9-2.1-5.3-5-5.6c-2.9-0.2-5.4,2.1-5.6,5c0,0.1,0,0.2,0,0.3v337c0,2.9,2.4,5.3,5.3,5.3&#10;&#9;&#9;l0,0C262.1,423.8,264.4,421.4,264.4,418.5C264.4,418.5,264.4,418.5,264.4,418.5z"/>
	<path class="st0_target-72" d="M259.1,425.8c-4,0-7.3-3.3-7.3-7.3v-337c0-4,3.3-7.3,7.3-7.3c0.1,0,0.3,0,0.4,0c4,0.3,7,3.6,6.9,7.6v336.7&#10;&#9;&#9;C266.5,422.5,263.2,425.8,259.1,425.8z M259.1,78.3c-1.8,0-3.2,1.4-3.2,3.2c0,0,0,0,0,0v337c0.1,1.8,1.6,3.2,3.4,3.1&#10;&#9;&#9;c1.7-0.1,3-1.4,3.1-3.1V81.8c0.1-1.8-1.3-3.3-3.1-3.5H259.1z"/>
	<path class="st0_target-72" d="M161.4,420.1c18.4-57.7,34.8-108,51.2-156.5c1-2.6-0.2-5.5-2.7-6.8c-2.7-1.2-5.8,0-7,2.6&#10;&#9;&#9;c-0.1,0.2-0.1,0.3-0.2,0.5c-16.4,48.6-32.9,99.1-51.4,156.9c-0.9,2.8,0.6,5.8,3.4,6.6c0.5,0.2,1,0.2,1.6,0.3l0,0&#10;&#9;&#9;C158.7,423.8,160.7,422.3,161.4,420.1z"/>
	<path class="st0_target-72" d="M156.4,425.8c-4,0-7.3-3.3-7.3-7.3c0-0.8,0.1-1.5,0.3-2.2c18.5-58.1,34.8-108,51.4-157c0.7-2,2.1-3.5,4-4.4&#10;&#9;&#9;c1.9-0.8,4.1-0.8,5.9,0c3.4,1.7,5.1,5.7,3.8,9.3c-16.5,48.8-32.8,98.5-51.2,156.4l0,0C162.4,423.7,159.6,425.8,156.4,425.8z&#10;&#9;&#9; M207.8,258.4c-0.4,0-0.9,0.1-1.3,0.3c-0.8,0.4-1.5,1.1-1.8,1.9c-16.5,48.9-32.9,98.8-51.4,156.9c-0.3,1-0.1,2.1,0.5,2.9&#10;&#9;&#9;c0.6,0.8,1.6,1.3,2.6,1.3c1.4,0,2.7-0.9,3.1-2.3l0,0c18.4-57.9,34.7-107.7,51.2-156.5c0.6-1.6-0.1-3.5-1.6-4.3&#10;&#9;&#9;C208.7,258.5,208.2,258.4,207.8,258.4z"/>
	<path class="st0_target-72" d="M361.9,423.8L361.9,423.8c2.9,0,5.3-2.4,5.3-5.3c0-0.5-0.1-1.1-0.3-1.6c-18.4-57.8-34.9-108.2-51.3-156.8&#10;&#9;&#9;c-0.8-2.4-3.2-4-5.7-3.7c-2.9,0.4-4.9,3-4.6,5.9c0,0.3,0.1,0.7,0.2,1c16.4,48.5,32.9,98.9,51.3,156.8&#10;&#9;&#9;C357.5,422.3,359.6,423.8,361.9,423.8z"/>
	<path class="st0_target-72" d="M361.9,425.8c-3.2,0-6-2.1-7-5.1c-18.5-58-34.8-107.9-51.3-156.7c-1.3-3.8,0.8-8,4.6-9.3&#10;&#9;&#9;c0.5-0.2,0.9-0.3,1.4-0.3c3.5-0.4,6.9,1.7,7.9,5.1c16.5,48.9,32.8,98.7,51.3,156.8c1.2,3.9-0.9,8-4.8,9.2&#10;&#9;&#9;C363.4,425.7,362.6,425.8,361.9,425.8L361.9,425.8z M310.5,258.4h-0.4c-1,0.1-1.8,0.7-2.4,1.5c-0.5,0.8-0.6,1.8-0.3,2.8&#10;&#9;&#9;c16.5,48.9,32.8,98.7,51.3,156.8c0.4,1.3,1.7,2.3,3.1,2.3c1,0,2-0.5,2.6-1.3c0.6-0.8,0.8-1.9,0.5-2.9&#10;&#9;&#9;c-18.5-58.1-34.8-107.9-51.3-156.7C313.2,259.4,312,258.4,310.5,258.4z"/>
	<circle class="st1_target-72 targetColor" cx="259.1" cy="238.6" r="140.9" style="fill: rgb(104, 225, 253);"/>
	<path class="st0_target-72" d="M259.1,381.6c-78.8,0-142.9-64.1-142.9-142.9s64.1-143,143-143s143,64.1,143,143S338,381.6,259.1,381.6z&#10;&#9;&#9; M259.1,99.8c-76.6,0-138.9,62.3-138.9,138.9s62.3,138.9,138.9,138.9S398,315.2,398,238.6S335.7,99.8,259.1,99.8z"/>
	<circle class="st2_target-72" cx="259.1" cy="238.6" r="116.8"/>
	<path class="st0_target-72" d="M259.1,357.4c-65.6,0-118.8-53.2-118.8-118.8c0-65.6,53.2-118.8,118.8-118.8S377.9,173,377.9,238.6&#10;&#9;&#9;c0,0,0,0,0,0C377.9,304.2,324.7,357.4,259.1,357.4z M259.1,123.9c-63.4,0-114.7,51.4-114.7,114.7s51.4,114.7,114.7,114.7&#10;&#9;&#9;c63.4,0,114.7-51.4,114.7-114.7C373.8,175.3,322.5,124,259.1,123.9z"/>
	<circle class="st1_target-72 targetColor" cx="259.1" cy="238.6" r="86.7" style="fill: rgb(104, 225, 253);"/>
	<path class="st0_target-72" d="M259.1,327.4c-49,0-88.7-39.7-88.7-88.7s39.7-88.7,88.7-88.7s88.7,39.7,88.7,88.7v0&#10;&#9;&#9;C347.8,287.6,308.1,327.3,259.1,327.4z M259.1,154c-46.8,0-84.7,37.9-84.7,84.7s37.9,84.7,84.7,84.7s84.7-37.9,84.7-84.7l0,0&#10;&#9;&#9;C343.7,191.9,305.9,154,259.1,154L259.1,154z"/>
	<circle class="st2_target-72" cx="259.1" cy="238.6" r="59.3"/>
	<path class="st0_target-72" d="M259.1,300c-33.9,0-61.3-27.5-61.3-61.3s27.5-61.3,61.3-61.3s61.3,27.5,61.3,61.3c0,0,0,0,0,0&#10;&#9;&#9;C320.4,272.5,293,300,259.1,300z M259.1,181.4c-31.6,0-57.2,25.6-57.2,57.2s25.6,57.2,57.2,57.2c31.6,0,57.2-25.6,57.2-57.2&#10;&#9;&#9;C316.4,207.1,290.8,181.4,259.1,181.4L259.1,181.4z"/>
	<circle class="st1_target-72 targetColor" cx="259.1" cy="238.6" r="32.8" style="fill: rgb(104, 225, 253);"/>
	<path class="st0_target-72" d="M259.1,273.5c-19.3,0-34.9-15.6-34.9-34.9s15.6-34.9,34.9-34.9c19.3,0,34.9,15.6,34.9,34.9c0,0,0,0,0,0&#10;&#9;&#9;C294,257.9,278.4,273.5,259.1,273.5z M259.1,207.8c-17,0-30.8,13.8-30.8,30.9c0,17,13.8,30.8,30.9,30.8c17,0,30.8-13.8,30.8-30.8&#10;&#9;&#9;C290,221.6,276.2,207.8,259.1,207.8L259.1,207.8z"/>
</g>
<g id="arrow_target-72">
	<polygon class="st3_target-72" points="132,138.2 99.9,152.6 146.6,188.6 180.2,175.4 &#9;"/>
	<path class="st0_target-72" d="M146.6,190.6c-0.4,0-0.9-0.2-1.2-0.4l-46.6-36c-0.9-0.6-1.1-1.9-0.5-2.8c0.2-0.3,0.5-0.5,0.9-0.7l32.1-14.4&#10;&#9;&#9;c0.7-0.3,1.5-0.2,2.1,0.2l48.1,37.3c0.6,0.4,0.9,1.2,0.8,1.9c-0.1,0.7-0.6,1.3-1.3,1.6l-33.6,13.1&#10;&#9;&#9;C147.1,190.6,146.8,190.6,146.6,190.6z M103.9,153.1l43,33.2l29.2-11.4l-44.3-34.3L103.9,153.1z"/>
	<polygon class="st3_target-72" points="131.3,136.2 142.6,106.8 183.9,146.3 180.2,175.4 &#9;"/>
	<path class="st0_target-72" d="M180.1,177.5c-0.5,0-0.9-0.2-1.3-0.4l-48.8-39.3c-0.7-0.6-0.9-1.5-0.6-2.3l11.2-29.4c0.4-1,1.5-1.6,2.6-1.2&#10;&#9;&#9;c0.3,0.1,0.5,0.3,0.8,0.5l41.4,39.5c0.5,0.4,0.7,1.1,0.6,1.7l-3.8,29.1c-0.1,0.7-0.6,1.4-1.3,1.6&#10;&#9;&#9;C180.7,177.4,180.4,177.5,180.1,177.5z M133.8,135.5l44.8,36.1l3.2-24.5l-38.4-36.7L133.8,135.5z"/>
	<path class="st4_target-72" d="M259.7,243.9c-1.1,0-2.1-0.3-2.9-1L111.7,127.6c-2-1.6-2.4-4.6-0.7-6.7c1.6-2,4.6-2.4,6.6-0.8l145.1,115.3&#10;&#9;&#9;c2,1.6,2.4,4.6,0.8,6.7C262.5,243.3,261.1,243.9,259.7,243.9L259.7,243.9z"/>
	<path class="st0_target-72" d="M259.7,246c-1.5,0-3-0.5-4.2-1.5L110.4,129.1c-2.9-2.3-3.4-6.6-1.1-9.5c2.3-2.9,6.6-3.4,9.5-1.1l145.1,115.3&#10;&#9;&#9;c3,2.3,3.5,6.6,1.2,9.5C263.8,245.1,261.8,246,259.7,246z M114.6,121.1c-1.5,0-2.7,1.2-2.7,2.7c0,0.8,0.4,1.6,1,2.1L258,241.3&#10;&#9;&#9;c1.2,0.9,2.8,0.7,3.8-0.4c0.9-1.2,0.7-2.9-0.4-3.8c0,0,0,0,0,0L116.3,121.7C115.8,121.3,115.2,121.1,114.6,121.1z"/>
</g>
</svg>