<svg version="1.1" id="Layer_1" xmlns="http://www.w3.org/2000/svg" xmlns:xlink="http://www.w3.org/1999/xlink" x="0px" y="0px" viewBox="0 0 500 500" style="width: 166px;" xml:space="preserve" data-imageid="credit-card-2-29" imageName="Credit Card 2" class="illustrations_image">
<style type="text/css">
	.st0_credit-card-2-29{fill:#68E1FD;}
	.st1_credit-card-2-29{fill:#FFFFFF;}
	.st2_credit-card-2-29{fill:#231F20;}
	.st3_credit-card-2-29{fill:#D1D3D4;}
	.st4_credit-card-2-29{fill:none;}
</style>
<g id="Left_Hand_credit-card-2-29">
	<path class="st0_credit-card-2-29 targetColor" d="M264.3,132.1c0,0-18.3,6.1-31.4,22.5c-7.1,8.9-31.1,49.7-31.1,49.7l31.2,8.6l39.2-51.5L264.3,132.1z" style="fill: rgb(104, 225, 253);"/>
</g>
<g id="Credit_Card_credit-card-2-29">
	<path class="st1_credit-card-2-29" d="M142.6,163.6l160.7-10.8c2.2-0.2,4.2,1.5,4.3,3.8l6.6,98.3c0.2,2.2-1.5,4.2-3.8,4.3L149.8,270&#10;&#9;&#9;c-2.2,0.2-4.2-1.5-4.3-3.8l-6.6-98.3C138.6,165.7,140.3,163.7,142.6,163.6z"/>
	<path class="st2_credit-card-2-29" d="M151,270.5c-3.3,0-6-2.6-6.2-5.9l-6.4-95.1c-0.2-3.4,2.4-6.4,5.8-6.7c0,0,0,0,0,0l157.5-10.6&#10;&#9;&#9;c3.5-0.2,6.5,2.4,6.7,5.9l6.4,95.1c0.2,3.5-2.4,6.4-5.8,6.7c0,0,0,0,0,0l0,0l-157.5,10.6L151,270.5z M302.1,153.4h-0.4L144.3,164&#10;&#9;&#9;c-2.8,0.2-4.9,2.6-4.8,5.4c0,0,0,0,0,0l6.4,95.1c0.2,2.8,2.6,4.9,5.4,4.8c0,0,0,0,0,0l157.5-10.6c2.8-0.2,4.9-2.6,4.8-5.4&#10;&#9;&#9;c0,0,0,0,0,0l-6.4-95.1C307,155.5,304.8,153.4,302.1,153.4L302.1,153.4z M308.9,259.3L308.9,259.3z"/>
	<path class="st3_credit-card-2-29" d="M167.3,221.7c-2.6,0-4.8-2-4.9-4.6l-0.7-10.7c-0.2-2.7,1.9-5.1,4.6-5.3l14.1-1c2.7-0.2,5.1,1.9,5.3,4.6&#10;&#9;&#9;l0.7,10.7c0.2,2.7-1.9,5.1-4.6,5.3l-14.1,1L167.3,221.7z M180.7,201h-0.3l-14,0.9c-2.2,0.2-3.9,2.1-3.8,4.3l0.7,10.7&#10;&#9;&#9;c0.1,2.2,2.1,3.9,4.3,3.8l14.1-0.9l0,0c2.2-0.2,3.9-2.1,3.8-4.3l-0.7-10.7C184.6,202.6,182.9,201,180.7,201L180.7,201z"/>
	
		<rect x="169.8" y="201.3" transform="matrix(0.9977 -6.731876e-02 6.731876e-02 0.9977 -13.8273 11.9388)" class="st3_credit-card-2-29" width="0.9" height="19.8"/>
	
		<rect x="177.3" y="200.8" transform="matrix(0.9977 -6.731876e-02 6.731876e-02 0.9977 -13.776 12.4458)" class="st3_credit-card-2-29" width="0.9" height="19.8"/>
	
		<rect x="162.9" y="205.2" transform="matrix(0.9976 -6.982913e-02 6.982913e-02 0.9976 -13.9345 12.6853)" class="st3_credit-card-2-29" width="23.2" height="0.9"/>
	
		<rect x="162.8" y="215.8" transform="matrix(0.9977 -6.784116e-02 6.784116e-02 0.9977 -14.2716 12.3261)" class="st3_credit-card-2-29" width="23.1" height="0.9"/>
	
		<rect x="162.3" y="209" transform="matrix(0.9977 -6.784116e-02 6.784116e-02 0.9977 -13.8277 11.7427)" class="st3_credit-card-2-29" width="7.3" height="0.9"/>
	
		<rect x="162.6" y="212.9" transform="matrix(0.9977 -6.784116e-02 6.784116e-02 0.9977 -14.0946 11.7698)" class="st3_credit-card-2-29" width="7.3" height="0.9"/>
	<polygon class="st3_credit-card-2-29" points="177.7,209.1 177.6,208.2 185.4,207.7 185.4,208.6 &#9;"/>
	<polygon class="st3_credit-card-2-29" points="177.9,213.1 177.9,212.1 185.6,211.6 185.7,212.6 &#9;"/>
	<path class="st3_credit-card-2-29" d="M165.9,229.2l17.8-1.2c1.3-0.1,2.4,0.9,2.4,2.1l0.2,2.7c0.1,1.3-0.9,2.4-2.1,2.4l-17.8,1.2&#10;&#9;&#9;c-1.3,0.1-2.4-0.9-2.4-2.1l-0.2-2.7C163.7,230.3,164.7,229.2,165.9,229.2z"/>
	<path class="st3_credit-card-2-29" d="M196,227.1l17.8-1.2c1.3-0.1,2.4,0.9,2.4,2.1l0.2,2.7c0.1,1.3-0.9,2.4-2.1,2.4l-17.8,1.2&#10;&#9;&#9;c-1.3,0.1-2.4-0.9-2.4-2.1l-0.2-2.7C193.8,228.3,194.8,227.2,196,227.1z"/>
	<path class="st3_credit-card-2-29" d="M226.1,225.1l17.8-1.2c1.3-0.1,2.4,0.9,2.4,2.1l0.2,2.7c0.1,1.3-0.9,2.4-2.1,2.4l-17.8,1.2&#10;&#9;&#9;c-1.3,0.1-2.4-0.9-2.4-2.1l-0.2-2.7C223.9,226.3,224.8,225.2,226.1,225.1z"/>
	<path class="st3_credit-card-2-29" d="M256.1,223.1l17.8-1.2c1.3-0.1,2.4,0.9,2.4,2.1l0.2,2.7c0.1,1.3-0.9,2.4-2.1,2.4l-17.8,1.2&#10;&#9;&#9;c-1.3,0.1-2.4-0.9-2.4-2.1l-0.2-2.7C253.9,224.2,254.9,223.2,256.1,223.1z"/>
	
		<rect x="165" y="248.2" transform="matrix(0.9977 -6.784116e-02 6.784116e-02 0.9977 -16.4382 13.293)" class="st3_credit-card-2-29" width="45" height="0.9"/>
	
		<rect x="221.9" y="245.7" transform="matrix(0.9977 -6.784116e-02 6.784116e-02 0.9977 -16.1776 15.8572)" class="st3_credit-card-2-29" width="6.9" height="0.9"/>
	
		<rect x="236.3" y="244.7" transform="matrix(0.9977 -6.784116e-02 6.784116e-02 0.9977 -16.0788 16.8333)" class="st3_credit-card-2-29" width="6.9" height="0.9"/>
	
		<rect x="228.2" y="245.5" transform="matrix(0.459 -0.8885 0.8885 0.459 -92.5358 339.8896)" class="st3_credit-card-2-29" width="9.3" height="0.9"/>
	
		<rect x="139.9" y="175.1" transform="matrix(0.9977 -6.731876e-02 6.731876e-02 0.9977 -11.7349 15.5294)" class="st2_credit-card-2-29" width="169.2" height="13.6"/>
	<path class="st2_credit-card-2-29" d="M140.6,195c-0.2,0-0.3-0.1-0.4-0.2c-0.1-0.1-0.2-0.3-0.2-0.5l-0.9-13.5c0-0.4,0.3-0.7,0.6-0.7l168.9-11.4&#10;&#9;&#9;c0.4,0,0.7,0.2,0.7,0.6c0,0,0,0,0,0l0.9,13.5c0,0.2,0,0.4-0.2,0.5c-0.1,0.1-0.3,0.2-0.5,0.2L140.6,195L140.6,195z M140.4,181.4&#10;&#9;&#9;l0.8,12.2l167.5-11.3l-0.8-12.2L140.4,181.4z"/>
</g>
<g id="Hand_credit-card-2-29">
	<path class="st1_credit-card-2-29" d="M182.1,255.8c0.5,0.3,0.9,0.7,1.1,1.3c0.6,1.3,1.1,2.6,1.4,4c-0.3-1.8-0.2-3.7,0.1-5.5&#10;&#9;&#9;c0.8-0.9,2.3-0.7,3.2,0.2c0.7,0.9,1.2,2.1,1.3,3.3c-0.5-1.5-0.9-3.5,0.4-4.4c1.1-0.6,2.4-0.4,3.3,0.6c0.8,0.9,1.3,2.1,1.5,3.2&#10;&#9;&#9;c-0.4-1.2-0.6-2.7,0.4-3.4c0.7-0.4,1.5-0.4,2.2,0.1c0.6,0.5,1.2,1,1.6,1.7c1.3,1.9,2.4,3.9,3.4,6c1.2,2.6,2.1,5.8,0.4,8&#10;&#9;&#9;c-3.1,4.1-11.4,3.7-15.6,2.2s-6-4.9-6.6-9.2C179.8,262.5,178.7,254.3,182.1,255.8z"/>
	<path class="st2_credit-card-2-29" d="M193.3,274.8c-2.3,0-4.7-0.4-6.9-1.1c-4.1-1.5-6.4-4.7-7.1-9.8c-1-7.3,0.5-8.4,1-8.8c0.7-0.5,1.5-0.5,2.2-0.1&#10;&#9;&#9;c0.6,0.3,1.1,0.8,1.4,1.4c0-0.4,0.1-0.7,0.2-1.1c0-0.1,0.1-0.2,0.2-0.3c0.5-0.5,1.1-0.9,1.8-0.9c0.8,0,1.7,0.3,2.3,0.8&#10;&#9;&#9;c0.2-0.4,0.5-0.7,0.9-1c1.4-0.8,3.2-0.6,4.3,0.7c0.1,0.1,0.2,0.2,0.3,0.3c0.2-0.2,0.4-0.4,0.6-0.6c0.9-0.6,2.1-0.6,3,0&#10;&#9;&#9;c0.7,0.5,1.3,1.2,1.8,1.9c1.3,1.9,2.4,4,3.4,6.1c1.8,3.8,1.9,6.8,0.3,8.8C200.7,273.9,196.9,274.8,193.3,274.8z M181.4,256.4&#10;&#9;&#9;c-0.1,0-0.2,0-0.2,0.1c-0.1,0.1-1.2,1.1-0.4,7.3c0.6,4.6,2.6,7.3,6.1,8.6c3.7,1.3,11.8,1.8,14.7-2c1.2-1.6,1.1-4-0.5-7.3&#10;&#9;&#9;c-1-2-2.1-4-3.3-5.9c-0.3-0.6-0.8-1.1-1.3-1.5c-0.4-0.3-0.9-0.3-1.3-0.1c-0.5,0.4-0.4,1.3-0.2,2.1c0,0.2,0.1,0.3,0.1,0.5&#10;&#9;&#9;c0.1,0.4-0.1,0.8-0.5,1c-0.4,0.1-0.8-0.1-0.9-0.5l0,0c-0.1-0.2-0.1-0.3-0.1-0.5c-0.2-0.9-0.6-1.7-1.2-2.4c-0.6-0.7-1.5-0.9-2.2-0.5&#10;&#9;&#9;c-0.5,0.5-0.7,1.2-0.5,1.8c0.2,0.6,0.3,1.2,0.4,1.8c0.1,0.4-0.1,0.8-0.5,0.9s-0.8-0.1-0.9-0.5c-0.2-0.6-0.4-1.2-0.5-1.8&#10;&#9;&#9;c-0.1-0.4-0.4-0.8-0.7-1.2c-0.3-0.4-0.8-0.5-1.3-0.5c-0.2,0-0.4,0.1-0.6,0.2c-0.3,1.6-0.3,3.3-0.1,5c0.1,0.4-0.2,0.8-0.6,0.9&#10;&#9;&#9;c-0.4,0.1-0.8-0.2-0.9-0.6c-0.3-1.3-0.7-2.6-1.3-3.8c-0.1-0.4-0.4-0.7-0.7-0.9l0,0C181.7,256.4,181.5,256.4,181.4,256.4z"/>
</g>
<g id="Character_credit-card-2-29">
	<path class="st1_credit-card-2-29" d="M294.7,319.6c0,0,13.6,41.4,6.3,41.4s-25.7-22.4-25.7-22.4l14.8-19"/>
	<path class="st2_credit-card-2-29" d="M301,361.9c-7.7,0-25.5-21.8-26.3-22.7c-0.2-0.3-0.2-0.7,0-1l14.8-19c0.3-0.3,0.7-0.4,1.1-0.1c0,0,0,0,0,0&#10;&#9;&#9;c0.3,0.3,0.4,0.7,0.1,1.1l-14.4,18.5c5.4,6.5,19.1,21.7,24.7,21.7l0,0c0.3,0,0.6-0.2,0.7-0.4c2.7-3.8-3.1-26-7.7-40&#10;&#9;&#9;c-0.2-0.4,0-0.8,0.4-1c0,0,0,0,0,0c0.4-0.1,0.8,0.1,1,0.5c0,0,0,0,0,0c1.2,3.6,11.6,35.7,7.5,41.4&#10;&#9;&#9;C302.6,361.4,301.8,361.8,301,361.9L301,361.9z"/>
	<path class="st2_credit-card-2-29" d="M246.4,223.4c0,0-56.6,71.7-60.1,97.1s81.7,21.9,81.7,21.9l10.1-37.3c0,0-44.8,3.2-39.6-4.9&#10;&#9;&#9;s36.5-38.5,36.5-38.5l4.8-42.6L246.4,223.4z"/>
	<path class="st2_credit-card-2-29" d="M257.6,343.4c-6.3,0-14.8-0.2-23.7-0.8c-24-1.8-39.2-6.1-45.4-12.9c-2.4-2.4-3.5-5.8-3-9.2&#10;&#9;&#9;c3.6-25.4,58-94.6,60.3-97.5c0.1-0.2,0.3-0.2,0.5-0.3l33.3-4.2c0.2,0,0.5,0,0.6,0.2c0.2,0.2,0.2,0.4,0.2,0.6l-4.8,42.6&#10;&#9;&#9;c0,0.2-0.1,0.3-0.2,0.4c-0.3,0.3-31.4,30.5-36.4,38.4c-0.4,0.7-0.3,1-0.2,1.2c2.2,3.7,25.2,3.5,39.1,2.5c0.2,0,0.5,0.1,0.6,0.3&#10;&#9;&#9;c0.2,0.2,0.2,0.4,0.1,0.7l-10.1,37.3c-0.1,0.3-0.4,0.5-0.7,0.5C267.9,343.2,263.8,343.4,257.6,343.4z M246.8,224.1&#10;&#9;&#9;c-3.6,4.6-56.4,72.3-59.8,96.6c-0.4,2.9,0.5,5.9,2.6,8c13.4,14.8,71.6,13.3,77.8,13.1l9.7-35.8c-6.8,0.4-36.3,2.1-39.5-3.3&#10;&#9;&#9;c-0.5-0.9-0.4-2,0.2-2.8c4.9-7.8,33.6-35.6,36.4-38.4l4.6-41.4L246.8,224.1z"/>
	<path class="st2_credit-card-2-29" d="M266.9,219.3c0.1,3-18.4,110.4-30.7,166.1l8.8,50.6c0,0,28.8-36.1,47.1-98s22.6-107,22.6-107L266.9,219.3z"/>
	<path class="st2_credit-card-2-29" d="M245,436.8h-0.2c-0.3-0.1-0.5-0.3-0.5-0.6l-8.8-50.6c0-0.1,0-0.2,0-0.3c12-54.3,30.8-162.7,30.7-165.9&#10;&#9;&#9;c0-0.4,0.3-0.7,0.7-0.8c0.1,0,0.1,0,0.2,0l47.8,11.7c0.4,0.1,0.6,0.4,0.6,0.8c0,0.4-4.6,45.9-22.6,107.2&#10;&#9;&#9;c-7.4,25.2-17.6,49.5-30.5,72.4c-9.4,16.6-16.7,25.8-16.7,25.9C245.4,436.7,245.2,436.8,245,436.8z M237,385.4l8.5,48.8&#10;&#9;&#9;c5.3-7.1,29.8-41.9,45.9-96.4c16.9-57.2,21.9-100.6,22.5-106.3l-46.3-11.4C266.2,231.4,248.6,333,237,385.4z"/>
	<path class="st0_credit-card-2-29 targetColor" d="M299.8,126c-19.1,1-40.7-1.2-44.8,22.2c-1.2,6.6-14,83.9-15.1,83.7l76.9,12c0,0,20.9-92.1,18.8-98.7&#10;&#9;&#9;C333,139.4,316.9,125.1,299.8,126z" style="fill: rgb(104, 225, 253);"/>
	<path class="st1_credit-card-2-29" d="M281.6,117.6c-1,0.2-6.3-7.3-7.1-8.7c-3-4.8-4.4-11.4-5.3-17c-0.7-4.6-0.2-10.6,4.2-12.2&#10;&#9;&#9;c-1.1-6.5,3.7-12.8,9.6-15.7s12.8-3.1,19.4-3.1l-5.3,6.9c7.7-0.3,15.4,0.6,22.8,2.7c1.2,0.2,2.3,0.8,3,1.8c0.8,1.3,0.1,3.2-1.1,4.1&#10;&#9;&#9;c-1.3,0.9-2.8,1.4-4.3,1.6c3.4,1.7,6.5,4,9,6.9c-2.1,0.6-4.3,1.3-5.7,3c-2.1,2.5-1.6,6.2-1.9,9.5c-0.4,4.9-2.4,11.8-6.8,13.9&#10;&#9;&#9;c-3.2,1.6-8.3,1.7-11.8,2.4L281.6,117.6z"/>
	<path class="st2_credit-card-2-29" d="M281.6,118.3c-2,0-7.7-9-7.8-9c-3.2-5.2-4.6-12.3-5.4-17.2s-0.1-10.8,4.1-12.8c-0.8-6.9,4.4-13.2,10.1-16&#10;&#9;&#9;c5.9-2.9,12.4-3.1,19.7-3.2l0,0c0.4,0,0.8,0.3,0.8,0.7c0,0.2-0.1,0.3-0.2,0.5l-4.4,5.7c7.2-0.1,14.4,0.8,21.4,2.8&#10;&#9;&#9;c1.4,0.2,2.6,1,3.5,2.1c1,1.7,0.2,4-1.3,5.1c-0.8,0.6-1.7,1-2.7,1.3c2.8,1.6,5.3,3.7,7.4,6c0.2,0.2,0.2,0.5,0.2,0.7&#10;&#9;&#9;c-0.1,0.3-0.3,0.5-0.5,0.5c-1.8,0.5-4.1,1.2-5.4,2.8c-1.5,1.8-1.5,4.2-1.6,6.8c0,0.8,0,1.5-0.1,2.3c-0.4,5.3-2.6,12.3-7.2,14.6&#10;&#9;&#9;c-2.3,1.1-5.3,1.5-8.3,1.9c-1.3,0.2-2.6,0.3-3.7,0.6l-18.6,3.8L281.6,118.3L281.6,118.3z M281.6,117.6L281.6,117.6z M300.9,61.6&#10;&#9;&#9;c-6.5,0.1-12.3,0.5-17.5,3c-5.4,2.6-10.3,8.6-9.2,14.9c0.1,0.4-0.1,0.7-0.5,0.8c-3.8,1.4-4.4,6.8-3.7,11.4&#10;&#9;&#9;c0.8,4.8,2.1,11.8,5.2,16.7c1.1,1.8,5.3,7.6,6.5,8.3l18.4-3.8c1.2-0.2,2.5-0.4,3.8-0.6c2.8-0.4,5.7-0.7,7.8-1.8&#10;&#9;&#9;c4-2,5.9-8.4,6.3-13.3c0-0.7,0.1-1.5,0.1-2.2c0.1-2.7,0.2-5.6,2-7.7c1.3-1.4,3-2.4,4.9-2.9c-2.3-2.4-5-4.3-8-5.8&#10;&#9;&#9;c-0.3-0.1-0.5-0.5-0.4-0.8c0-0.3,0.3-0.6,0.6-0.7c1.4-0.2,2.8-0.7,4-1.4c0.9-0.7,1.5-2.2,0.9-3.2c-0.7-0.8-1.6-1.3-2.6-1.4&#10;&#9;&#9;c-7.3-2-14.9-3-22.5-2.7c-0.3,0-0.6-0.1-0.7-0.4c-0.1-0.3-0.1-0.6,0.1-0.8L300.9,61.6z"/>
	<path class="st1_credit-card-2-29" d="M287.6,124.4l-0.9,14c0,0,1,7.9,9.6,6c5.2-1.2,9.5-4.6,11.8-9.4c0,0,1.9-33.4,2.5-42.3c-5.4-0.4-10.4,1.1-16,0&#10;&#9;&#9;c-4.7-1-9.3-2.4-13.8-4.2c-1,9.7-4.1,18.4-2.6,28.1C279.2,123.3,287.6,124.4,287.6,124.4z"/>
	<path class="st2_credit-card-2-29" d="M293.8,145.4c-1.6,0-3.2-0.4-4.5-1.3c-1.8-1.4-3-3.4-3.3-5.6c0,0,0-0.1,0-0.1l0.8-13.3&#10;&#9;&#9;c-2.1-0.4-8.4-2.2-9.3-8.3c-1-6.7,0.1-12.8,1.2-19.2c0.5-3,1.1-6,1.4-9.1c0-0.2,0.2-0.4,0.4-0.6c0.2-0.1,0.4-0.1,0.7-0.1&#10;&#9;&#9;c4.5,1.7,9,3.1,13.7,4.1c3,0.4,6,0.5,9,0.1c2.3-0.2,4.6-0.3,6.8-0.2c0.2,0,0.4,0.1,0.5,0.3c0.1,0.2,0.2,0.3,0.2,0.6&#10;&#9;&#9;c-0.6,8.8-2.5,41.9-2.5,42.3c0,0.1,0,0.2-0.1,0.3c-2.4,5-6.9,8.6-12.3,9.8C295.6,145.2,294.7,145.3,293.8,145.4z M287.5,138.3&#10;&#9;&#9;c0.3,1.8,1.2,3.4,2.7,4.5c1.5,1.1,3.5,1.3,6,0.8c4.9-1.2,9-4.4,11.2-8.8c0.1-2.4,1.8-31.9,2.5-41.4c-2,0-3.9,0-5.9,0.2&#10;&#9;&#9;c-3.1,0.4-6.3,0.3-9.4-0.1c-4.4-0.9-8.8-2.2-13-3.9c-0.3,2.8-0.8,5.6-1.3,8.3c-1.1,6.3-2.2,12.3-1.2,18.7c0.9,6,8.6,7.1,8.7,7.1&#10;&#9;&#9;c0.4,0.1,0.7,0.4,0.7,0.8L287.5,138.3z"/>
	<path class="st2_credit-card-2-29" d="M287.3,131.2c0,0,5.6,0.6,9.5-3s3.5-7.4,3.5-7.4s-6.4,3.8-12.7,3.6L287.3,131.2z"/>
	<path class="st2_credit-card-2-29" d="M288.2,132c-0.3,0-0.7,0-1,0c-0.4,0-0.7-0.4-0.7-0.8l0.3-6.8c0-0.4,0.4-0.7,0.8-0.7c6.1,0.2,12.2-3.4,12.3-3.5&#10;&#9;&#9;c0.3-0.2,0.8-0.1,1,0.2c0.1,0.1,0.1,0.2,0.1,0.3c0,0.2,0.3,4.2-3.8,8C294.7,130.9,291.5,132.1,288.2,132z M288,130.5&#10;&#9;&#9;c1.5,0,5.4-0.3,8.2-2.8c1.7-1.5,2.8-3.4,3.2-5.6c-3.5,1.8-7.3,2.8-11.2,3L288,130.5z"/>
	<path class="st1_credit-card-2-29" d="M294.3,105.2c0,0-4.9,6.5-3.9,7.7s4,0.6,4,0.6"/>
	<path class="st2_credit-card-2-29" d="M292.9,114.4c-1.1,0.1-2.2-0.3-3-1c-1.1-1.4,1.5-5.4,3.8-8.6c0.3-0.3,0.8-0.3,1.1,0c0.3,0.2,0.3,0.6,0.1,0.9&#10;&#9;&#9;c-2.2,3-4,6.1-3.8,6.8c0.5,0.5,2.2,0.5,3.3,0.3c0.4-0.1,0.8,0.1,0.9,0.5s-0.1,0.8-0.5,0.9c0,0,0,0-0.1,0&#10;&#9;&#9;C294,114.3,293.4,114.4,292.9,114.4z"/>
	<path class="st2_credit-card-2-29" d="M292.5,119.5c-2.4-0.1-4.6-1.2-6.1-3c-0.3-0.3-0.3-0.7,0-1c0.3-0.3,0.7-0.3,1,0c1.3,1.6,3.3,2.5,5.4,2.5&#10;&#9;&#9;c3.9-0.2,7-4.3,7-4.4c0.2-0.4,0.7-0.5,1-0.3c0.4,0.2,0.5,0.7,0.3,1c0,0-0.1,0.1-0.1,0.1c-0.1,0.2-3.5,4.7-8.1,5L292.5,119.5z"/>
	<path class="st2_credit-card-2-29" d="M281.3,104.9c-1.7,0-3.1-1.4-3.2-3.1v-2.9c0-1.7,1.4-3.2,3.1-3.2c0,0,0,0,0,0l7.9-0.1l0,0&#10;&#9;&#9;c1.7,0,3.1,1.4,3.2,3.1v2.9c0,1.7-1.4,3.2-3.1,3.2c0,0,0,0,0,0L281.3,104.9L281.3,104.9z M289.1,97.1L289.1,97.1l-7.9,0.1&#10;&#9;&#9;c-0.9,0-1.7,0.8-1.7,1.7v2.9c0,0.9,0.7,1.7,1.6,1.7c0,0,0,0,0.1,0l7.9-0.1l0,0c0.4,0,0.9-0.2,1.2-0.5c0.3-0.3,0.5-0.7,0.5-1.2v-2.9&#10;&#9;&#9;C290.8,97.9,290.1,97.1,289.1,97.1C289.1,97.1,289.1,97.1,289.1,97.1z"/>
	<path class="st2_credit-card-2-29" d="M297,104.8c-1.7,0-3.1-1.4-3.2-3.1v-2.8c0-1.7,1.4-3.2,3.1-3.2c0,0,0,0,0.1,0l7.9-0.1c1.7,0,3.2,1.3,3.2,3.1&#10;&#9;&#9;c0,0,0,0,0,0.1v2.9c0,1.7-1.4,3.2-3.1,3.2L297,104.8L297,104.8z M304.9,97L304.9,97l-7.9,0.1c-0.9,0-1.7,0.8-1.7,1.7v2.9&#10;&#9;&#9;c0,0.4,0.2,0.9,0.5,1.2c0.3,0.3,0.8,0.5,1.2,0.5l7.9-0.1l0,0c0.4,0,0.9-0.2,1.2-0.5c0.3-0.3,0.5-0.7,0.5-1.2v-2.9&#10;&#9;&#9;C306.6,97.7,305.8,97,304.9,97C304.9,97,304.9,97,304.9,97z"/>
	<path class="st2_credit-card-2-29" d="M291.5,99.5c-0.4,0-0.7-0.4-0.7-0.8c0-0.3,0.3-0.6,0.7-0.7h3l0,0c0.4,0,0.7,0.3,0.7,0.7c0,0.4-0.3,0.7-0.7,0.7&#10;&#9;&#9;L291.5,99.5L291.5,99.5z"/>
	<path class="st2_credit-card-2-29" d="M315.2,104.6c-0.1,0-0.3,0-0.4-0.1l-7.9-5.2c-0.4-0.2-0.5-0.6-0.3-1c0.2-0.4,0.6-0.5,1-0.3c0,0,0.1,0,0.1,0.1&#10;&#9;&#9;l7.9,5.2c0.3,0.2,0.4,0.7,0.2,1C315.7,104.5,315.5,104.6,315.2,104.6z"/>
	<path class="st1_credit-card-2-29" d="M307.8,105.6c1.6-2,4.1-5.7,7.1-4.3c0.8,0.4,1.5,1,2,1.7c2.3,3.1,1.7,7-0.1,10.1c-1.6,2.7-6.2,6.7-9.1,3"/>
	<path class="st2_credit-card-2-29" d="M310.5,118.3c-1.4,0-2.6-0.7-3.4-1.8c-0.3-0.3-0.2-0.8,0.1-1.1c0.3-0.3,0.8-0.2,1.1,0.1l0,0&#10;&#9;&#9;c0.5,0.8,1.4,1.2,2.4,1.2c2-0.1,4.3-2.2,5.4-4.1c1.9-3.3,2-6.8,0.1-9.2c-0.4-0.6-1-1.1-1.7-1.4c-2.1-0.9-4,1.2-5.8,3.6l-0.4,0.5&#10;&#9;&#9;c-0.3,0.3-0.7,0.4-1.1,0.1c0,0,0,0,0,0c-0.3-0.3-0.4-0.7-0.1-1.1l0.4-0.5c1.6-2.1,4.3-5.5,7.7-4.1c0.9,0.4,1.7,1.1,2.3,1.9&#10;&#9;&#9;c2.2,3,2.2,7,0,10.9c-1,1.8-3.7,4.7-6.6,4.9L310.5,118.3z"/>
	<ellipse transform="matrix(1 -8.377482e-03 8.377482e-03 1 -0.838 2.4073)" class="st2_credit-card-2-29" cx="286.9" cy="101.2" rx="0.9" ry="1.8"/>
	<ellipse transform="matrix(1 -8.377482e-03 8.377482e-03 1 -0.8352 2.5352)" class="st2_credit-card-2-29" cx="302.2" cy="101" rx="0.9" ry="1.8"/>
	<path class="st0_credit-card-2-29 targetColor" d="M335.5,145.2c0,0,37.1,74.9,23,82s-46.8-12.4-46.8-12.4l-0.1-15.6l25,2.5l-18.5-16.9L335.5,145.2z" style="fill: rgb(104, 225, 253);"/>
	<path class="st1_credit-card-2-29" d="M306.1,200.4l11,1.8c1.4,1.7,2.2,3.9,2.3,6.1c0,2.1-0.8,4.5-3.3,6.9l-8.7-2.9&#10;&#9;&#9;C307.5,212.2,309.2,203.9,306.1,200.4z"/>
	<path class="st2_credit-card-2-29" d="M316.1,215.9c-0.1,0-0.2,0-0.2,0l-8.7-2.9c-0.4-0.1-0.6-0.5-0.5-0.9c0-0.1,1.6-7.9-1.2-11.2&#10;&#9;&#9;c-0.3-0.3-0.2-0.8,0.1-1.1c0.2-0.2,0.4-0.2,0.6-0.2l11,1.8c0.2,0,0.3,0.1,0.5,0.2c1.5,1.9,2.4,4.2,2.5,6.6c0,2.9-1.4,5.6-3.6,7.5&#10;&#9;&#9;C316.5,215.8,316.3,215.9,316.1,215.9z M308.3,211.7l7.6,2.6c1.7-1.5,2.7-3.7,2.8-6c-0.1-2-0.8-3.8-2-5.4l-9-1.4&#10;&#9;&#9;C309.3,204.8,308.6,209.9,308.3,211.7z"/>
	<polygon class="st2_credit-card-2-29" points="272.3,178.5 274.3,177.6 296.9,177.1 305.6,219.2 304.1,220.2 &#9;"/>
	<path class="st2_credit-card-2-29" d="M304.1,221c-0.2,0-0.4-0.1-0.6-0.3L271.7,179c-0.1-0.2-0.2-0.4-0.1-0.6c0.1-0.2,0.2-0.4,0.4-0.5l2-0.9&#10;&#9;&#9;c0.1,0,0.2-0.1,0.3-0.1l22.5-0.5c0.4,0,0.7,0.2,0.7,0.6l8.8,42.1c0.1,0.3-0.1,0.6-0.3,0.8l-1.5,1C304.3,221,304.2,221,304.1,221z&#10;&#9;&#9; M273.4,178.8l30.8,40.5l0.5-0.4l-8.5-41l-21.8,0.4L273.4,178.8z"/>
	<path class="st1_credit-card-2-29" d="M304.1,220.2c0-0.1-8-42.2-8-42.2l-23.9,0.4l7.4,40.7L304.1,220.2z"/>
	<path class="st2_credit-card-2-29" d="M304.1,221L304.1,221l-24.4-1c-0.4,0-0.7-0.3-0.7-0.6l-7.4-40.7c0-0.2,0-0.4,0.2-0.6c0.1-0.2,0.3-0.3,0.6-0.3&#10;&#9;&#9;l23.9-0.4c0.4,0,0.7,0.3,0.8,0.6c8,42.2,8,42.2,8,42.3c0,0.2-0.1,0.4-0.2,0.6C304.5,221,304.3,221,304.1,221z M280.3,218.5l22.8,1&#10;&#9;&#9;c-1.1-5.7-6.8-35.8-7.6-40.6l-22.3,0.4L280.3,218.5z"/>
	<path class="st1_credit-card-2-29" d="M306.1,200.4c-0.9-0.5-1.8-0.8-2.8-0.9c-1.8-0.2-11.4-1.7-12.4,0.4c-0.8,1.6,0,1.9,0,1.9s-2.8,0-2.1,2.5&#10;&#9;&#9;c0,0-1.2,2.8,1,3.6c0,0-1.5,0.8,0.2,2.1c3.2,2.4,14.4,8.1,17.8,5.3c1.1-1,1.9-2.4,2.2-3.9C311.2,207.4,309.8,202.4,306.1,200.4z"/>
	<path class="st2_credit-card-2-29" d="M305.3,216.9c-5.1,0-13.2-4.3-15.6-6.2c-0.7-0.4-1.1-1.2-1.1-2c0-0.2,0.1-0.4,0.1-0.6&#10;&#9;&#9;c-0.3-0.2-0.5-0.6-0.7-0.9c-0.3-1-0.3-2,0-2.9c-0.2-0.7-0.1-1.5,0.4-2.1c0.4-0.5,0.9-0.8,1.4-0.9c0-0.6,0.1-1.1,0.4-1.6&#10;&#9;&#9;c0.9-1.9,5.6-1.7,12.2-0.9l1,0.1c1.1,0.1,2.1,0.4,3.1,0.9l0,0c3.7,2.1,5.6,7.2,4.4,12c-0.4,1.6-1.2,3.1-2.4,4.2&#10;&#9;&#9;C307.6,216.6,306.4,216.9,305.3,216.9z M291.3,201.2c0.3,0.2,0.4,0.5,0.3,0.8c-0.1,0.4-0.4,0.6-0.7,0.6c-0.5,0-1,0.2-1.3,0.5&#10;&#9;&#9;c-0.2,0.3-0.2,0.7,0,1c0.1,0.2,0.1,0.3,0,0.5c-0.3,0.6-0.3,1.3-0.1,2c0.1,0.3,0.4,0.5,0.7,0.6c0.4,0.1,0.6,0.6,0.5,1&#10;&#9;&#9;c-0.1,0.2-0.2,0.3-0.4,0.4c-0.1,0.1-0.1,0.1-0.2,0.2c0,0,0.1,0.3,0.5,0.6c3.6,2.8,14.1,7.6,16.8,5.3c1-0.9,1.7-2.1,1.9-3.4&#10;&#9;&#9;c1.1-4.1-0.5-8.6-3.6-10.3l0,0c-0.8-0.4-1.6-0.7-2.5-0.8l-1-0.1c-9-1.1-10.5-0.3-10.7,0.1C291.4,200.5,291.4,200.8,291.3,201.2&#10;&#9;&#9;L291.3,201.2z"/>
	<line class="st4_credit-card-2-29" x1="290.9" y1="201.8" x2="301.3" y2="202.8"/>
	<path class="st2_credit-card-2-29" d="M301.3,203.6L301.3,203.6l-10.5-1c-0.4,0-0.7-0.4-0.7-0.8c0.1-0.4,0.4-0.7,0.8-0.7l10.4,1&#10;&#9;&#9;c0.4,0.1,0.7,0.5,0.6,0.9C302,203.3,301.7,203.6,301.3,203.6L301.3,203.6z"/>
	<path class="st1_credit-card-2-29" d="M288.8,204.4c0,0,8,2.2,10.9,1.9"/>
	<path class="st2_credit-card-2-29" d="M299,207c-3.4,0-10.1-1.9-10.4-1.9c-0.4-0.1-0.7-0.5-0.5-1c0,0,0,0,0,0c0.1-0.4,0.5-0.6,0.9-0.5&#10;&#9;&#9;c2.2,0.6,8.3,2.1,10.6,1.9c0.4,0,0.8,0.3,0.8,0.8c0,0.4-0.2,0.7-0.6,0.8C299.5,207,299.3,207,299,207z"/>
	<path class="st1_credit-card-2-29" d="M289.1,207.5c0,0,5.4,2.8,9.4,2.9"/>
	<path class="st2_credit-card-2-29" d="M298.5,211.2L298.5,211.2c-4.1,0-9.5-2.8-9.8-3c-0.4-0.2-0.5-0.6-0.3-1c0.2-0.4,0.6-0.5,1-0.3&#10;&#9;&#9;c0.1,0,5.3,2.8,9.1,2.8c0.4,0,0.8,0.3,0.8,0.8c0,0,0,0,0,0C299.2,210.8,298.9,211.2,298.5,211.2z"/>
	<path class="st2_credit-card-2-29" d="M326.6,197.8h-0.1c-0.4-0.1-0.7-0.5-0.6-0.9c0,0,0,0,0,0l7.7-42.3c0.1-0.4,0.5-0.7,0.9-0.6&#10;&#9;&#9;c0.4,0.1,0.7,0.5,0.6,0.9l-7.7,42.3C327.3,197.5,327,197.7,326.6,197.8z"/>
	<path class="st2_credit-card-2-29" d="M351,207.8c-0.3,0-0.5-0.1-0.6-0.3c-2.1-3.1-10.8-4.6-14-4.9l-19.4-1.9c-0.4,0-0.7-0.4-0.7-0.8&#10;&#9;&#9;c0-0.4,0.4-0.7,0.8-0.7l19.4,1.9c0.5,0,12.1,1.2,15.1,5.6c0.2,0.4,0.1,0.8-0.2,1.1C351.3,207.7,351.2,207.8,351,207.8z"/>
	<path class="st1_credit-card-2-29" d="M224.9,374.2c0.6,0,5.1-0.8,10.1,4.3s14,36.6,14.8,44.5S245,436,245,436L224.9,374.2z"/>
	<path class="st2_credit-card-2-29" d="M245,436.8c-0.1,0-0.1,0-0.2,0c-0.3-0.1-0.5-0.3-0.5-0.5l-20.1-61.9c-0.1-0.2,0-0.5,0.1-0.7&#10;&#9;&#9;c0.2-0.2,0.4-0.3,0.6-0.3h0.2c3.8-0.2,7.3,1.3,10.4,4.5c5.2,5.4,14.2,37.4,15,44.9c0.4,5.1-1.4,10.1-5,13.8&#10;&#9;&#9;C245.4,436.7,245.2,436.8,245,436.8z M226,374.9l19.4,59.6c2.7-3.2,4-7.4,3.6-11.5c-0.8-8.2-9.9-39.2-14.6-44&#10;&#9;&#9;C231.8,376.3,229,374.9,226,374.9z"/>
	<path class="st1_credit-card-2-29" d="M247.5,429.4c0,0-7.5-37.7-14.2-48.2s-12.7-8.5-13.2,2.3s9.1,49.9,15.6,54.2S248.9,436,247.5,429.4z"/>
	<path class="st2_credit-card-2-29" d="M240.3,439.9c-1.8,0-3.5-0.6-5-1.6c-7.1-4.8-16.4-44.9-16-54.9c0.3-5.5,2-9.1,4.8-9.9c3-0.8,6.5,1.8,9.9,7.2&#10;&#9;&#9;c6.6,10.6,13.9,46.9,14.3,48.5c0.8,3.6-0.7,7.2-3.6,9.4C243.3,439.4,241.8,439.9,240.3,439.9z M225.1,374.9c-0.2,0-0.4,0-0.7,0.1&#10;&#9;&#9;c-2.1,0.5-3.4,3.7-3.6,8.5c-0.5,10.7,9.1,49.4,15.3,53.5c2.2,1.7,5.3,1.8,7.6,0.3c2.5-1.7,3.7-4.8,3-7.8l0,0&#10;&#9;&#9;c-0.1-0.4-7.6-37.6-14.1-48C230,377.3,227.3,374.9,225.1,374.9L225.1,374.9z"/>
	<path class="st1_credit-card-2-29" d="M247.3,329h-0.1c-0.4-0.1-0.7-0.5-0.6-0.9c0,0,0,0,0,0l14-75.6c0.1-0.4,0.5-0.7,0.9-0.6&#10;&#9;&#9;c0.4,0.1,0.7,0.5,0.6,0.9l-14,75.6C247.9,328.7,247.6,329,247.3,329z"/>
	<path class="st2_credit-card-2-29" d="M242.1,222.9H242c-0.4-0.1-0.7-0.5-0.6-0.9l13.5-76.9c0.1-0.4,0.5-0.7,0.9-0.6c0.4,0.1,0.7,0.5,0.6,0.9&#10;&#9;&#9;c0,0,0,0,0,0l-13.5,76.9C242.8,222.6,242.5,222.9,242.1,222.9z"/>
	<path class="st2_credit-card-2-29" d="M293.8,145.2l-5.1,2.9l2.2,5.5c3.5,13.1,14.2,23,27.5,25.4c23.1,4.7,39.4-16.8,39.4-16.8l1.2-14l-13.8-0.1&#10;&#9;&#9;c0,0-15,23-26.8,22.1s-24.2-16.8-24.2-16.8l3.4-3.2L293.8,145.2z"/>
	<path class="st2_credit-card-2-29" d="M325,180.4c-2.3,0-4.5-0.2-6.7-0.7c-13.5-2.6-24.4-12.7-28-26l-2.2-5.3c-0.1-0.3,0-0.7,0.3-0.9l5.1-2.9&#10;&#9;&#9;c0.3-0.2,0.7-0.1,0.9,0.2l3.9,4.9c0.2,0.3,0.2,0.7-0.1,1l-3,2.8c2.2,2.7,13,15.2,23.2,16c11.3,0.9,26-21.5,26.2-21.8&#10;&#9;&#9;c0.1-0.2,0.4-0.3,0.6-0.3l13.8,0.1c0.2,0,0.4,0.1,0.5,0.2c0.1,0.2,0.2,0.4,0.2,0.6l-1.3,14c0,0.1-0.1,0.3-0.1,0.4&#10;&#9;&#9;C358.3,162.8,344.7,180.4,325,180.4z M289.7,148.4l2,4.9c3.5,12.8,13.9,22.5,26.9,25c21.3,4.4,37-14.4,38.5-16.4l1.2-12.9&#10;&#9;&#9;l-12.6-0.1c-2,2.9-15.2,22.1-26.5,22.1h-0.8c-12-1-24.2-16.4-24.7-17.1c-0.3-0.3-0.2-0.7,0.1-1l3-2.8l-3.1-3.9L289.7,148.4z"/>
	<circle class="st3_credit-card-2-29" cx="285.7" cy="185.7" r="2"/>
</g>
</svg>